<svg width="342" height="98" viewBox="0 0 342 98" fill="none" xmlns="http://www.w3.org/2000/svg">
<path d="M27.6861 40.3584H19.1446L20.8077 41.3029C20.9207 41.3645 21.1773 41.5082 21.1773 41.7341C21.1773 42.1037 20.8077 42.1345 20.1404 42.1961C19.0728 43.2022 17.2967 44.2904 17.0092 44.4341H21.5469L22.7583 42.7915C22.9329 42.5657 23.015 42.4425 23.1895 42.4425C23.364 42.4425 23.5899 42.6478 23.7028 42.7299L25.5713 44.3725C25.715 44.5163 25.8587 44.6292 25.8587 44.8345C25.8587 45.0912 25.6329 45.122 25.4276 45.122H16.2598V47.4832H19.5347L20.623 46.0459C20.8283 45.7893 20.9412 45.6763 21.0849 45.6763C21.1979 45.6763 21.3724 45.7585 21.6598 45.9946L23.5899 47.4319C23.7644 47.5448 23.9082 47.6885 23.9082 47.8939C23.9082 48.1505 23.6515 48.1813 23.477 48.1813H16.2598L16.2906 50.7376H23.015L24.3701 48.9821C24.5447 48.7562 24.6576 48.6125 24.8013 48.6125C24.9758 48.6125 25.0888 48.6946 25.3454 48.9308L27.296 50.6863C27.4397 50.83 27.5527 50.9429 27.5527 51.1175C27.5527 51.4049 27.3268 51.4357 27.1215 51.4357H16.9784C19.0214 53.2426 23.0971 55.7168 27.8401 56.2095V56.3841C26.5466 57.1027 25.5097 58.3655 25.0785 59.4639C19.9351 57.4826 17.2043 53.0578 16.2803 51.446C16.3111 53.8072 16.3933 57.7392 16.3933 58.6324C16.3933 59.1252 16.3625 59.351 16.1674 59.6077C15.9108 59.9567 15.1921 60.3879 14.3606 60.3879C13.2723 60.3879 13.2723 59.6077 13.2723 59.1765C13.2723 59.0944 13.4161 53.5711 13.4469 52.5034C11.4039 54.9776 7.55403 58.1088 2.0616 59.4639L2 59.2586C5.88064 57.1335 8.18028 54.5977 10.4183 51.4357H6.0449C4.28937 51.4357 3.66313 51.4973 2.94449 51.6411L2.48251 50.5734C4.20724 50.7171 6.25022 50.7479 6.56848 50.7479H13.4982V48.1916H8.324C6.56848 48.1916 5.94224 48.2737 5.2236 48.3969L4.76162 47.3292C6.51715 47.5037 8.52933 47.5037 8.84758 47.5037H13.5085C13.5085 47.1342 13.4777 45.4916 13.4777 45.1425H7.26658C5.48025 45.1425 4.88481 45.2246 4.16618 45.3478L3.6734 44.2801C5.42892 44.4547 7.4719 44.4547 7.77989 44.4547H10.5723C10.2849 44.198 10.2233 44.0851 9.82287 42.9558C9.36089 41.6006 8.87838 40.9128 8.46773 40.3687H5.56238C3.80686 40.3687 3.18062 40.4508 2.46198 40.574L2 39.5063C3.11902 39.6193 4.15591 39.6808 4.90535 39.6808H11.1678C11.1678 35.7386 11.024 35.1124 10.7674 33.8496L14.3298 34.6812C14.5351 34.7428 14.8225 34.8249 14.8225 35.1124C14.8225 35.5127 14.3298 35.7181 13.878 35.8926C13.8164 37.3299 13.8164 37.9869 13.8164 39.5679V39.6808H15.6541C15.6541 37.874 15.6541 35.5743 15.1921 33.9009L18.8161 34.6504C19.1036 34.712 19.3089 34.8249 19.3089 35.0816C19.3089 35.4511 18.8777 35.6565 18.3849 35.8618C18.3849 36.4675 18.3233 39.1367 18.3541 39.6808H18.9906C19.2473 39.2805 20.6846 36.7755 20.8899 34.1371L24.2264 35.6565C24.4831 35.7694 24.6576 35.9131 24.6576 36.0877C24.6576 36.5804 23.8774 36.5496 23.6207 36.5496C21.9576 37.9869 21.0644 38.7364 19.7093 39.6808H23.4462L24.7397 38.0177C24.8834 37.8432 25.058 37.6481 25.2017 37.6481C25.3454 37.6481 25.4584 37.7097 25.7766 37.9664L27.8196 39.6295C28.0454 39.8348 28.1378 39.9478 28.1378 40.0915C28.1378 40.3482 27.912 40.379 27.7067 40.379L27.6861 40.3584ZM8.34454 39.4139C7.42057 39.4139 7.16392 38.7774 6.6814 37.5455C6.59927 37.3401 6.0757 36.0261 4.92588 34.8762L5.03881 34.7017C7.6875 35.1945 9.81261 35.9337 9.81261 37.8021C9.81261 38.7261 9.15557 39.4139 8.34454 39.4139ZM9.40196 40.3584C10.9008 40.8512 12.913 41.4774 12.913 43.233C12.913 43.9516 12.451 44.2699 12.1944 44.4444H16.1366C16.5062 43.695 17.2556 41.652 17.4918 40.3584H9.41222H9.40196Z" fill="white"/>
<path d="M54.5633 52.8619C53.1568 52.3691 51.0317 51.5376 48.5883 49.6178C48.5267 49.6794 48.4754 49.6999 48.3009 49.7615V52.2049C48.3009 53.1494 48.5062 57.7795 48.5062 58.8163C48.5062 60.3666 46.956 60.3666 46.6993 60.3666C45.4674 60.3666 45.3236 59.6479 45.3236 59.1551C45.3236 58.9806 45.3852 54.5866 45.3852 53.8064C45.3852 51.9071 45.3852 49.6999 45.067 48.0881L47.4488 48.6014C45.6932 46.8767 44.8925 45.4394 44.4613 44.4949H44.2354C43.486 45.8193 42.0179 47.2565 40.7038 48.3448L42.3978 48.7759C42.6236 48.8375 42.8597 48.9813 42.8597 49.1763C42.8597 49.3201 42.8597 49.433 42.0795 50.0387C41.5867 55.1308 40.2419 59.3502 32.1007 60.3871V60.2126C38.9175 57.7076 38.9175 52.1638 38.9175 49.6588C34.811 52.4718 31.4745 53.1699 30.3555 53.3958V53.2212C34.5236 50.9832 38.5171 47.4105 40.4985 44.4846H37.3057C37.2749 45.2341 37.2441 46.3531 35.6426 46.3531C34.2361 46.3531 34.2361 45.6345 34.2361 45.2033C34.2361 45.1417 34.4414 40.4295 34.4414 39.5363C34.4414 38.1298 34.3798 35.5941 34.0924 34.3005L37.4289 35.4811H50.0153L50.7647 34.475C50.8777 34.3005 51.0214 34.126 51.2575 34.126C51.3705 34.126 51.5142 34.2389 51.6887 34.3518L53.7317 35.7891C53.8138 35.8507 54.1013 36.0458 54.1013 36.2511C54.1013 36.5385 54.0191 36.6207 53.0336 37.3188C52.972 38.3249 53.1465 43.3246 53.1465 44.4436C53.1465 45.7063 52.1404 45.963 51.3089 45.963C50.0461 45.963 50.0461 45.1314 50.0769 44.4641H44.9849C47.11 46.5379 51.5963 49.0942 57.058 49.2893V49.5151C56.3085 49.9155 54.9636 51.1782 54.5838 52.8208L54.5633 52.8619ZM42.2027 36.1895H37.2852V39.6082H42.2027V36.1895ZM42.2027 40.3063H37.2852V43.8173H42.2027V40.3063ZM50.0769 36.1895H44.9849V39.6082H50.0769V36.1895ZM50.0769 40.3063H44.9849V43.8173H50.0769V40.3063Z" fill="white"/>
<path d="M72.5908 45.5322C71.9851 46.025 70.8968 46.9079 69.5725 47.6265C70.866 48.2835 71.7284 49.1254 71.7284 50.3265C71.7284 51.3326 70.979 51.9075 70.2295 51.9075C69.285 51.9075 68.9668 51.3018 68.7307 50.614C68.4432 49.7824 67.8375 48.0577 66.8622 47.0208C66.893 48.8071 67.0059 56.7121 67.0059 58.3137C67.0059 59.9152 65.4865 60.0384 65.1683 60.0384C64.0185 60.0384 64.0185 59.5251 64.0185 58.8578C64.0185 57.9133 64.193 53.6528 64.193 52.7904C64.193 52.2463 64.2238 49.8543 64.2238 49.3718C61.7496 51.3531 59.9428 52.1642 59.1625 52.503L59.0188 52.3284C62.4067 49.536 66.4618 43.9101 67.9607 39.9987H63.5359C61.7804 39.9987 61.1542 40.0808 60.4355 40.204L59.9736 39.1363C61.6367 39.28 63.3409 39.3108 63.5667 39.3108H64.1109C64.0493 36.5184 64.0287 35.5739 63.5051 33.8184L67.3242 34.6191C67.4987 34.6499 67.7862 34.7629 67.7862 35.0503C67.7862 35.3994 67.3858 35.7074 66.8622 36.0256C66.8314 36.4568 66.8006 39.0747 66.8006 39.3005H67.8888L68.6896 38.3766C68.7717 38.2945 68.9155 38.0891 69.0592 38.0891C69.2029 38.0891 69.3774 38.2021 69.5212 38.315L71.8516 40.0397C71.9645 40.1218 72.0775 40.245 72.0775 40.5017C72.0775 40.9329 71.5847 41.0766 71.0098 41.3025C70.4657 42.2264 69.398 44.0333 67.047 46.7025C67.8478 46.9079 68.4843 47.1029 69.0284 47.339C70.0961 45.2139 70.3527 43.8074 70.5273 42.9964L73.1451 44.6082C73.2889 44.6903 73.4018 44.8341 73.4018 45.0394C73.4018 45.3576 73.0014 45.4398 72.5702 45.5014L72.5908 45.5322ZM84.0274 39.7009C84.1711 43.9306 83.9658 50.3676 83.5346 53.4372C83.2779 55.4186 82.7543 59.2479 77.9292 59.5354C77.8676 57.4616 76.6665 56.4555 75.2805 55.4802L75.3421 55.2749C77.149 55.7676 78.0421 55.7882 78.3604 55.7882C79.6539 55.7882 80.2596 55.0695 80.5779 52.9957C80.8346 51.3326 81.122 46.5896 81.122 41.4359C81.122 40.4298 81.0912 39.7933 81.0604 38.4484H77.96C77.8779 44.5979 77.3235 47.76 76.5843 50.2033C76.2353 51.2915 74.4284 56.6711 68.1352 59.5764L68.0736 59.3711C74.6235 53.5091 74.7467 46.836 74.8904 38.4484C73.1965 38.4484 72.4778 38.5614 72.0775 38.6538L71.5847 37.5861C73.3402 37.7298 75.3832 37.7606 75.6912 37.7606H80.8654L81.7585 36.7237C81.9022 36.5492 82.0152 36.3233 82.2205 36.3233C82.3334 36.3233 82.5901 36.5287 82.6825 36.58L84.7768 38.161C84.9205 38.2739 85.1258 38.4176 85.1258 38.6538C85.1258 39.0028 84.5201 39.4032 84.0376 39.6907L84.0274 39.7009Z" fill="white"/>
<path d="M88.7807 42.9454L88.4111 42.5758L92.148 38.8492L88.4111 35.1225L88.7807 34.7529L92.5074 38.4899L96.234 34.7529L96.6036 35.1225L92.8667 38.8492L96.6036 42.5758L96.234 42.9454L92.5074 39.2085L88.7807 42.9454ZM90.3412 38.8492C90.3412 39.3625 89.91 39.8039 89.3864 39.8039C88.8628 39.8039 88.4214 39.3727 88.4214 38.8492C88.4214 38.3256 88.8628 37.8944 89.3864 37.8944C89.91 37.8944 90.3412 38.3359 90.3412 38.8492ZM93.4621 35.718C93.4621 36.221 93.0515 36.6727 92.5074 36.6727C91.9632 36.6727 91.5526 36.2313 91.5526 35.718C91.5526 35.2046 91.994 34.7529 92.5074 34.7529C93.0207 34.7529 93.4621 35.1944 93.4621 35.718ZM93.4621 41.9701C93.4621 42.4834 93.0515 42.9351 92.5074 42.9351C91.9632 42.9351 91.5526 42.4937 91.5526 41.9701C91.5526 41.4465 91.994 41.0154 92.5074 41.0154C93.0207 41.0154 93.4621 41.4568 93.4621 41.9701ZM96.6036 38.8492C96.6036 39.3625 96.1827 39.8039 95.6386 39.8039C95.0945 39.8039 94.6838 39.3727 94.6838 38.8492C94.6838 38.3256 95.1253 37.8944 95.6386 37.8944C96.1519 37.8944 96.6036 38.3359 96.6036 38.8492Z" fill="white"/>
<path d="M111.428 57.6356L111.366 57.4302C115.596 55.7876 120.421 52.3998 120.421 46.1887C120.421 42.0206 117.803 38.489 112.229 38.489C111.428 38.489 111.192 38.5506 110.853 38.6635C113.409 40.0186 113.409 41.2506 113.409 41.6202C113.409 42.6571 110.904 47.975 109.036 51.0241C106.818 54.6481 105.73 55.5926 104.724 55.5926C103.8 55.5926 103.543 55.1614 102.65 53.7857C102.281 53.2108 102.25 53.18 101.531 52.5743C100.638 51.8249 100.238 50.4492 100.238 49.094C100.238 42.7392 105.699 37.5137 112.886 37.5137C118.429 37.5137 123.84 40.7578 123.84 46.9176C123.84 55.8903 113.717 57.3276 111.417 57.6356H111.428ZM109.867 38.838C106.562 39.8133 102.712 43.9506 102.712 48.7244C102.712 49.9051 103.256 52.718 104.467 52.718C105.679 52.718 107.054 49.7819 108.235 47.2872C108.923 45.8807 110.596 42.4004 110.596 40.7065C110.596 39.7312 110.103 39.0947 109.878 38.838H109.867Z" fill="white"/>
<path d="M150.83 49.3916C150.799 50.1411 150.768 51.8042 150.891 55.0792C150.891 55.5103 150.973 57.6355 150.973 57.7484C150.973 58.929 149.967 59.3602 148.879 59.3602C147.668 59.3602 147.698 58.8469 147.729 57.1427H131.601C131.601 57.3685 131.662 57.9229 131.662 58.1796C131.662 59.6476 129.938 59.7298 129.619 59.7298C128.388 59.7298 128.388 59.0727 128.388 58.6108C128.388 57.4609 128.531 52.3997 128.531 51.3628C128.531 49.4122 128.47 48.8065 128.131 47.4L132.042 48.1802C132.217 48.211 132.586 48.2931 132.586 48.5806C132.586 48.981 131.95 49.2684 131.611 49.443C131.58 50.5107 131.58 55.1099 131.611 56.4548H138.192V48.6114C138.192 46.7429 138.192 45.9627 138.161 45.4802H133.356C133.356 45.7369 133.356 45.9935 133.213 46.2604C132.956 46.6608 132.063 47.0099 131.2 47.0099C130.133 47.0099 130.133 46.3734 130.133 46.0038C130.133 45.1106 130.215 41.1992 130.215 40.4292C130.215 38.4478 130.184 37.7805 129.722 35.8299L133.716 36.7744C133.972 36.836 134.229 36.9181 134.229 37.1748C134.229 37.6368 133.572 37.955 133.336 38.0679C133.274 39.6798 133.274 39.998 133.305 44.7924H138.13C138.13 43.7247 138.099 39.074 138.069 38.1193C137.986 35.6451 137.72 34.7519 137.463 33.9512L141.805 35.0189C142.031 35.0805 142.319 35.1626 142.319 35.3885C142.319 35.8196 141.682 36.1379 141.251 36.2508C141.22 36.6512 141.19 38.4683 141.19 38.8379V44.7924H146.251C146.364 42.7186 146.333 38.1193 145.789 36.1379L149.782 37.0824C150.039 37.144 150.275 37.2261 150.275 37.4828C150.275 37.8318 149.762 38.1193 149.331 38.2835C149.331 39.1151 149.3 40.8398 149.3 42.0205C149.3 42.5338 149.382 44.8642 149.382 45.3262C149.382 46.3015 148.376 46.8764 147.339 46.8764C146.158 46.8764 146.158 46.1578 146.189 45.4699H141.19V56.4548H147.688C147.719 55.0997 147.75 53.1491 147.75 52.4613C147.75 49.0939 147.575 48.2932 147.349 47.2563L151.261 48.1494C151.466 48.211 151.774 48.211 151.774 48.4985C151.774 48.8167 151.374 49.1555 150.799 49.3916H150.83Z" fill="white"/>
<path d="M180.355 48.098H162.246V50.798H176.444L177.512 49.4223C177.594 49.3094 177.799 49.1041 177.974 49.1041C178.117 49.1041 178.261 49.217 178.405 49.3299L180.417 50.9109C180.591 51.0546 180.704 51.1984 180.704 51.3729C180.704 51.6604 180.478 51.7733 179.698 52.3482C179.236 57.4403 179.01 59.822 174.124 60.6023C174.011 58.8775 172.748 57.6969 172.481 57.5019C171.845 57.933 171.27 57.933 171.075 57.933C170.038 57.933 170.038 57.3581 170.038 57.0707H159.463C159.494 58.3642 159.494 58.5079 159.381 58.7646C159.063 59.4011 158.119 59.5654 157.657 59.5654C157.113 59.5654 156.538 59.3395 156.538 58.703C156.538 58.5593 156.538 58.3026 156.568 58.1281C156.651 57.1836 156.651 55.6847 156.651 55.1919C156.651 52.8615 156.568 52.574 156.332 51.8862L159.843 52.7486C159.987 52.7794 160.275 52.8923 160.275 53.149C160.275 53.4364 159.587 53.8368 159.474 53.8984C159.474 54.2988 159.443 56.198 159.443 56.3726H163.324V51.4858H162.256C162.112 51.9991 161.455 52.4919 160.449 52.4919C159.33 52.4919 159.299 51.7117 159.299 51.1676C159.299 48.6113 159.412 44.4945 159.412 41.9382C159.412 40.0697 159.412 37.5134 159.125 35.9838L162.543 37.3594H165.213C165.726 36.2096 166.106 34.9469 165.993 33.6533L169.843 34.721C170.048 34.7826 170.161 34.8647 170.161 35.0701C170.161 35.3883 169.761 35.6142 169.011 35.8708C168.58 36.0146 167.112 37.1644 166.824 37.3697H173.21L174.072 36.3328C174.185 36.2199 174.36 36.0762 174.504 36.0762C174.647 36.0762 174.822 36.1891 174.996 36.3328L176.896 37.7085C177.121 37.883 177.214 37.9959 177.214 38.1705C177.214 38.345 177.152 38.4271 177.07 38.5401C176.926 38.6838 176.382 39.0842 176.177 39.2895C176.115 40.0903 176.259 43.7143 176.259 44.4329C176.259 46.096 174.391 46.096 174.185 46.096C173.497 46.096 173.21 45.7778 173.292 44.9462H162.256V47.3896H175.684L177.091 45.5827C177.296 45.3261 177.378 45.2131 177.553 45.2131C177.696 45.2131 177.871 45.3569 178.128 45.5622L180.509 47.3485C180.653 47.4307 180.797 47.636 180.797 47.7797C180.797 48.0364 180.571 48.098 180.366 48.098H180.355ZM173.313 38.0575H162.246V40.85H173.313V38.0575ZM173.313 41.5378H162.246V44.2686H173.313V41.5378ZM166.619 51.4858C166.701 51.8041 166.537 51.9478 166.106 52.2661C166.075 52.9847 166.075 54.5657 166.106 56.3726H170.069C170.13 56.0543 170.13 55.3665 170.13 54.9353C170.13 54.4733 170.161 52.841 169.812 51.9478L173.374 52.6664C173.692 52.728 173.744 52.841 173.744 52.9847C173.744 53.2414 173.487 53.4467 172.964 53.8163C172.964 54.1653 172.994 55.8593 172.994 56.2288C172.994 56.4342 172.994 56.7422 172.881 57.0091C174.894 57.0912 175.499 57.0091 175.9 56.5163C176.3 56.0235 176.701 54.0729 176.731 51.4858H166.609H166.619Z" fill="white"/>
<path d="M209.45 50.3361H187.398C185.612 50.3361 184.985 50.3977 184.267 50.5415L183.805 49.4738C185.56 49.6175 187.572 49.6483 187.911 49.6483H190.786V41.887H188.599C186.843 41.887 186.217 41.9486 185.499 42.0615L185.006 41.0246C186.761 41.1684 188.804 41.1992 189.112 41.1992H190.775C190.775 36.0866 190.488 35.2447 190.088 34.0128L194.338 34.9367C194.512 34.9675 194.851 35.0497 194.851 35.3063C194.851 35.7683 194.02 36.0866 193.671 36.2303C193.64 37.0105 193.64 40.4805 193.64 41.1992H199.04C199.04 35.6554 198.896 35.2447 198.434 33.9512L202.664 34.8957C202.869 34.9573 203.095 35.101 203.095 35.2653C203.095 35.7272 202.376 36.0147 201.976 36.1276C201.945 36.9284 201.945 40.4703 201.945 41.1889H203.588L205.107 39.2075C205.312 38.9508 205.395 38.8379 205.569 38.8379C205.744 38.8379 205.887 38.9816 206.082 39.1562L208.382 41.1376C208.526 41.2813 208.639 41.3634 208.639 41.5687C208.639 41.8254 208.413 41.887 208.208 41.887H201.945V49.6483H204.738L206.236 47.5745C206.411 47.3487 206.524 47.2049 206.668 47.2049C206.842 47.2049 207.037 47.3487 207.212 47.5232L209.573 49.597C209.717 49.7099 209.86 49.8536 209.86 50.0282C209.86 50.3156 209.604 50.3464 209.429 50.3464L209.45 50.3361ZM194.122 54.1347C191.884 56.2906 188.743 58.6518 183.979 59.9967L183.866 59.8222C186.248 58.159 188.404 56.1982 190.221 53.9293C191.258 52.605 191.545 51.835 191.833 50.9726L195.221 53.1902C195.426 53.3339 195.59 53.4776 195.59 53.6829C195.59 54.1141 195.015 54.1141 194.122 54.1449V54.1347ZM199.071 41.887H193.671V49.6483H199.071V41.887ZM205.733 59.853C204.645 59.853 204.265 59.1959 203.352 57.5533C201.627 54.4734 199.04 52.605 197.972 51.835L198.085 51.6092C199.44 51.8966 207.427 54.2271 207.427 58.1385C207.427 59.0009 206.77 59.8632 205.733 59.8632V59.853Z" fill="white"/>
<path d="M226.923 54.8742C226.923 55.3876 226.984 57.8309 226.984 58.3853C226.984 58.7036 226.954 59.0731 226.666 59.3606C226.235 59.761 225.486 59.9663 225.024 59.9663C224.161 59.9663 224.161 59.3298 224.192 58.5906H219.192V58.9397C219.192 59.9766 218.073 60.1511 217.581 60.1511C216.4 60.1511 216.4 59.4941 216.4 59.0321C216.4 58.3442 216.513 54.9769 216.482 54.2069C214.87 57.1123 212.663 58.3134 211.821 58.8062L211.647 58.6933C215.065 55.018 215.302 48.9198 215.302 46.1068C215.302 45.4498 215.302 43.7251 215.045 42.4315L218.381 43.7559H223.781L224.675 42.719C224.757 42.6061 224.931 42.4007 225.137 42.4007C225.311 42.4007 225.486 42.5445 225.599 42.6266L227.323 43.9509C227.467 44.0639 227.611 44.2384 227.611 44.4437C227.611 44.5874 227.58 44.762 227.436 44.9057C227.354 45.0186 226.779 45.4806 226.656 45.5935C226.594 46.2506 226.718 49.5358 226.718 50.2544C226.718 50.6548 226.687 50.9731 226.369 51.1989C226.081 51.4248 225.393 51.6301 224.931 51.6301C223.956 51.6301 223.956 50.9115 223.956 50.624H217.714C217.57 51.3118 217.488 51.856 217.201 52.6054L219.069 53.4062H224.1L224.9 52.4309C225.013 52.2871 225.157 52.1434 225.301 52.1434C225.414 52.1434 225.557 52.205 225.794 52.3693L227.488 53.5191C227.631 53.632 227.744 53.8065 227.744 53.9195C227.744 54.1453 227.662 54.2069 226.913 54.8948L226.923 54.8742ZM226.923 41.3433C226.317 41.3433 226.173 41.1688 225.085 39.6494C223.792 37.863 222.755 36.8056 221.78 36.1691C220.948 37.3189 219.849 38.7562 217.324 40.6555C218.443 40.7376 220.455 40.7684 220.517 40.7684H221.554L222.385 39.5878C222.529 39.3824 222.56 39.2182 222.816 39.2182C222.96 39.2182 223.165 39.3927 223.33 39.5056L225.024 40.7171C225.106 40.7787 225.311 40.9737 225.311 41.1482C225.311 41.4049 225.085 41.4665 224.88 41.4665H219.993C218.207 41.4665 217.611 41.5281 216.893 41.6718L216.667 41.1585C214.449 42.6574 212.848 43.3966 211.955 43.8072L211.893 43.6019C217.129 39.0026 218.905 34.8961 219.336 33.6025L222.611 35.009C222.755 35.0706 222.96 35.1835 222.96 35.4402C222.96 35.7277 222.786 35.7893 222.303 35.8714C223.822 36.1896 228.483 37.2265 228.483 39.8342C228.483 40.6349 227.796 41.3536 226.933 41.3536L226.923 41.3433ZM223.966 47.3183H218.135C218.073 47.9548 218.022 48.6734 217.848 49.9054H223.966V47.3183ZM223.966 44.4129H218.248L218.166 46.6304H223.976V44.4129H223.966ZM224.192 54.0735H219.192V57.8925H224.192V54.0735ZM231.84 38.6638C231.758 39.8444 231.758 40.9019 231.758 42.1441C231.758 43.7559 231.902 50.9731 231.902 52.4309C231.902 52.9237 231.902 54.2172 230.064 54.2172C229.058 54.2172 229.058 53.437 229.058 53.0674C229.058 52.7491 229.12 51.4864 229.12 51.1989C229.151 48.581 229.151 46.0555 229.151 44.1255C229.151 38.0581 229.12 37.8014 228.802 36.3334L232.282 37.2779C232.508 37.3395 232.631 37.5345 232.631 37.7398C232.631 37.8836 232.631 38.0273 231.851 38.6638H231.84ZM236.984 36.7953C236.922 41.6205 236.84 51.5377 237.097 55.8803C237.097 56.0857 237.128 56.3115 237.128 56.5168C237.128 57.7796 236.84 59.7405 232.703 60.2538C232.477 57.9233 230.947 57.1226 229.572 56.4347V56.2089C230.947 56.3834 232.939 56.4347 233.308 56.4347C233.801 56.4347 234.14 56.4347 234.14 55.5723V37.7809C234.14 37.4627 234.058 35.974 233.596 34.3622L237.538 35.4813C237.764 35.5429 237.887 35.6866 237.887 35.9124C237.887 36.087 237.826 36.2615 236.994 36.8056L236.984 36.7953Z" fill="white"/>
<path d="M261.017 57.1529C260.268 57.1529 259.867 56.5472 259.549 56.0338C257.044 51.9479 256.1 50.3977 253.656 48.4163C250.125 52.6973 245.72 56.3521 240.32 57.4403L240.259 57.2145C247.733 53.5597 254.313 43.5603 255.319 39.9055C253.656 40.2238 249.652 41.1683 248.39 41.8048C247.178 42.4413 247.035 42.4926 246.809 42.4926C246.09 42.4926 244.427 40.7987 244.427 39.0124C244.427 38.4683 244.488 37.9447 244.684 37.4622C245.607 38.961 246.326 39.4128 247.384 39.4128C248.533 39.4128 254.94 38.6941 255.576 38.15C255.72 38.0371 256.295 37.4622 256.438 37.3698C256.551 37.2876 256.644 37.2568 256.808 37.2568C257.157 37.2568 259.765 39.382 259.765 39.9261C259.765 40.2443 259.621 40.3572 259.077 40.6139C258.533 40.8398 258.358 40.9835 258.071 41.4763C256.633 44.125 255.884 45.4699 254.016 47.9132C257.496 49.1452 259.878 51.1368 260.976 52.1635C261.756 52.9437 262.588 53.8574 262.588 55.1817C262.588 56.2494 261.951 57.1323 261.007 57.1323L261.017 57.1529Z" fill="white"/>
<path d="M287.319 47.7491C287.001 47.7491 285.594 47.667 285.307 47.667C283.808 47.667 280.769 48.0982 279.127 48.3548C279.414 49.6484 280.708 55.2537 280.934 56.4036C281.077 57.0401 281.077 57.4918 281.077 57.6663C281.077 58.5903 280.502 59.2165 279.845 59.2165C279.014 59.2165 277.864 58.272 277.72 56.3112C277.433 52.8001 277.351 51.7119 276.796 48.8065C275.277 49.1556 273.059 49.6997 271.109 50.5313C270.852 50.6442 269.733 51.1062 269.466 51.1062C268.429 51.1062 265.955 49.8742 265.955 47.5438C265.955 47.3693 265.986 47.2255 266.017 46.9997C266.879 48.0366 267.916 48.4985 269.066 48.4985C270.216 48.4985 274.846 47.4924 276.509 47.1229C276.252 45.8909 276.108 45.1723 275.585 42.7289C273.942 43.1601 273.059 43.5091 271.53 44.1354C271.242 44.2483 271.068 44.3099 270.893 44.3099C270.544 44.3099 269.456 43.8787 268.563 42.616C268.101 41.9589 268.101 41.4046 268.101 40.6859C268.963 41.3738 269.651 41.7741 271.037 41.7741C271.961 41.7741 274.168 41.3122 275.205 41.1171C274.343 37.0311 274.168 36.7231 271.643 36.2611C272.567 35.4296 273.08 35.1113 274.23 35.1113C275.379 35.1113 277.618 35.5425 277.618 36.6307C277.618 36.8874 277.443 38.0372 277.443 38.2733C277.443 38.6224 277.474 39.3616 277.648 40.6038C278.86 40.3163 280.749 39.9159 281.272 39.6798C282.053 39.3308 282.135 39.2794 282.453 39.2794C282.853 39.2794 285.297 39.5669 285.297 40.7783C285.297 41.6407 284.26 41.6407 284.034 41.6407C283.172 41.6407 280.297 41.7844 277.884 42.2156C278.316 44.7719 278.521 45.7472 278.716 46.6403C279.322 46.5274 282.022 45.9833 282.535 45.8396C282.884 45.7574 284.291 45.2031 284.609 45.1209C284.866 45.0388 285.071 45.008 285.297 45.008C286.272 45.008 288.685 45.7266 288.685 46.8765C288.685 47.7696 287.822 47.7696 287.309 47.7696L287.319 47.7491Z" fill="white"/>
<path d="M313.365 48.2939C312.872 48.2939 312.153 48.2323 312.04 48.2323C310.377 48.1194 306.548 48.1194 304.484 48.1194C304.166 48.1194 298.448 48.2323 296.436 48.7765C295.655 48.9818 295.573 49.0023 295.399 49.0023C294.423 49.0023 292.668 46.7848 292.668 45.327C292.668 44.67 293.099 43.7768 293.274 43.4277C294.218 45.6658 294.742 45.789 297.955 45.789C299.741 45.789 309.802 45.676 310.49 45.4399C310.695 45.3578 311.435 45.1525 311.64 45.1525C312.79 45.1525 315.202 45.6452 315.202 47.1339C315.202 47.8525 314.453 48.2837 313.365 48.2837V48.2939Z" fill="white"/>
<path d="M338.117 56.2916C337.08 56.2916 336.741 55.3984 336.361 54.1973C336.217 53.7353 335.642 51.7231 335.499 51.2919C332.593 52.5547 328.087 53.7661 323.918 54.8235C323.087 55.0494 322.83 55.1418 322.399 55.5113C322.081 55.7988 321.937 55.8809 321.711 55.8809C320.736 55.8809 319.062 53.263 319.062 51.7128C319.062 51.3638 319.124 51.0763 319.237 50.6759C320.038 51.6204 320.5 52.0003 321.824 52.0003C322.173 52.0003 322.43 52.0003 323.005 51.9387C325.191 47.2573 328.035 39.7526 328.035 38.4283C328.035 37.3914 327.378 36.9294 325.992 36.3032C326.506 36.1594 327.224 35.9541 327.891 35.9541C329.986 35.9541 331.916 38.0484 331.916 39.1161C331.916 39.5473 331.854 39.6089 331.197 40.2967C330.828 40.6663 330.653 41.0154 330.253 41.7956C329.185 43.9207 326.115 49.1565 323.816 51.9181C326.372 51.7744 326.916 51.6923 335.252 50.6246C334.041 47.7192 332.378 45.9124 331.598 45.05C335.129 46.4257 339.759 50.5117 339.759 54.1049C339.759 55.3984 339.041 56.2916 338.117 56.2916Z" fill="white"/>
<path d="M108.376 73.1545V97.9065H107V71.748H116.691V73.1545H108.386H108.376Z" fill="white"/>
<path d="M119.586 94.7136H120.48C121.999 94.7136 122.523 94.0566 122.523 92.7322V77.5792C122.523 76.2035 121.948 75.5978 120.48 75.5978H119.586V74.6533H127.953C134.626 74.6533 138.651 79.3963 138.651 85.2276C138.651 90.6584 135.314 95.6376 127.871 95.6376H119.597V94.7136H119.586ZM127.923 75.5978C126.311 75.5978 125.88 76.2343 125.88 77.5792V92.7322C125.88 94.0874 126.455 94.7136 127.923 94.7136C129.072 94.7136 130.859 94.7136 132.553 93.0197C134.483 91.1204 134.996 88.0508 134.996 85.0838C134.996 77.9283 132.296 75.5978 128.415 75.5978H127.923Z" fill="white"/>
<path d="M161.206 75.5978H160.23C158.762 75.5978 158.187 76.3781 158.187 77.9591V89.2314C158.187 92.455 156.576 96.192 151.176 96.192C147.613 96.192 144.051 94.4056 144.051 88.944V77.5895C144.051 76.2651 143.537 75.6081 141.977 75.6081H141.002V74.6636H150.426V75.6081H149.451C147.87 75.6081 147.377 76.2138 147.377 77.5895V88.5436C147.377 92.917 149.646 95.0113 152.408 95.0113C155.169 95.0113 157.233 92.6501 157.233 89.3751V77.9591C157.233 76.5526 156.596 75.5978 155.108 75.5978H154.45V74.6533H161.206V75.5978Z" fill="white"/>
<path d="M175.096 95.6372V94.7133H176.42C177.077 94.7133 177.745 94.3642 177.745 93.5634C177.745 93.1938 177.601 92.5573 177.488 92.2391L176.051 88.1326H168.751L167.345 92.7319C167.283 92.9577 167.17 93.276 167.17 93.5326C167.17 94.2205 167.745 94.7133 168.721 94.7133H170.014V95.6372H162.971V94.7133H163.834C164.491 94.7133 165.764 94.6517 166.452 92.4136L172.026 74.5092L174.695 74.1396L181.05 92.2493C181.42 93.3376 182.118 94.7235 183.812 94.7235H184.469V95.6475H175.096V95.6372ZM172.16 77.1271L169.029 87.1881H175.702L172.17 77.1271H172.16Z" fill="white"/>
<path d="M195.618 75.5978H194.643C193.062 75.5978 192.6 76.2035 192.6 77.5792V92.7322C192.6 94.2003 193.257 94.7136 194.643 94.7136H196.973C201.08 94.7136 203.072 91.4387 203.934 90.0322L204.683 90.4018L202.733 95.6376H186.235V94.7136H187.21C188.678 94.7136 189.253 94.1079 189.253 92.7322V77.5792C189.253 76.2549 188.76 75.5978 187.21 75.5978H186.235V74.6533H195.639V75.5978H195.618Z" fill="white"/>
<path d="M205.71 94.7147H206.747C207.671 94.7147 208.184 94.0577 208.184 93.1645V84.6538C208.184 84.0173 208.009 83.2165 207.116 83.2165C207.034 83.2165 206.623 83.2165 206.11 83.391L205.936 82.6724L211.141 81.4918V93.1645C211.141 94.1706 211.572 94.7147 212.691 94.7147H213.615V95.6387H205.71V94.7147ZM211.685 76.1738C211.685 77.2929 210.792 78.2168 209.642 78.2168C208.492 78.2168 207.599 77.2929 207.599 76.1738C207.599 75.0548 208.543 74.1309 209.642 74.1309C210.74 74.1309 211.685 75.024 211.685 76.1738Z" fill="white"/>
<path d="M214.765 94.7147H215.802C216.726 94.7147 217.239 94.0577 217.239 93.1645V84.6538C217.239 84.0173 217.064 83.2165 216.171 83.2165C216.089 83.2165 215.678 83.2165 215.165 83.391L214.991 82.6724L220.195 81.4918V93.1645C220.195 94.1706 220.627 94.7147 221.746 94.7147H222.67V95.6387H214.765V94.7147ZM220.74 76.1738C220.74 77.2929 219.846 78.2168 218.697 78.2168C217.547 78.2168 216.654 77.2929 216.654 76.1738C216.654 75.0548 217.598 74.1309 218.697 74.1309C219.795 74.1309 220.74 75.024 220.74 76.1738Z" fill="white"/>
<path d="M224.938 97.6809V96.2744H233.244V71.5225H234.62V97.6809H224.928H224.938Z" fill="white"/>
<path d="M9.23652 12.2258C8.47284 12.2258 8.31207 11.5988 8.19952 11.1889C8.13521 11.012 7.97444 10.5377 7.83778 10.1117C7.18664 10.3609 6.87313 10.4493 6.55158 10.5619C6.55158 11.1889 6.52746 14.0265 6.52746 14.5892C6.52746 15.1519 6.61589 19.0024 6.61589 19.139C6.61589 19.7499 6.61589 20.8271 5.24126 20.8271C4.51778 20.8271 4.40523 20.4252 4.40523 20.0152C4.40523 19.967 4.40523 19.7258 4.42935 19.2917C4.51778 17.8046 4.51778 15.9397 4.51778 15.0795V11.1647C4.06761 11.3014 2.04184 11.9043 1.6399 12.0008C1.55148 12.2741 1.47913 12.5152 1.21385 12.5152C0.988766 12.5152 0.924456 12.3545 0.811914 12.0168L0 9.62938C1.23797 9.85446 1.96145 9.90269 3.7139 9.87858C4.02741 9.42842 6.68824 5.44128 7.00175 3.10206L9.45357 4.76604C9.56611 4.85447 9.72688 4.99112 9.72688 5.16797C9.72688 5.55382 9.18829 5.59402 8.80243 5.61813C7.76543 6.71942 5.67536 8.79337 4.34896 9.84642C4.79913 9.82231 5.38596 9.79819 7.677 9.59723C7.36349 8.80944 7.16252 8.53613 6.86509 8.18244L7.00175 8.04578C7.76543 8.27086 10.2896 9.05864 10.2896 10.9718C10.2896 11.221 10.1288 12.2098 9.22848 12.2098L9.23652 12.2258ZM3.69782 14.3239C3.04669 16.1728 1.76048 18.3271 0.297433 19.6615L0.160776 19.5731C0.675255 18.4718 1.71225 15.5458 1.62383 12.5956L3.89879 13.52C4.05957 13.5844 4.23642 13.6567 4.23642 13.8577C4.23642 14.1069 4.05957 14.1712 3.69782 14.3319V14.3239ZM6.35061 2.18566C5.4985 3.1101 4.16407 4.549 3.78625 4.86251C4.14799 5.1117 4.86344 5.56186 4.86344 6.57472C4.86344 7.42681 4.2525 7.90109 3.64959 7.90109C2.91003 7.90109 2.66083 7.29015 2.50005 6.91234C2.09811 5.89948 1.76049 5.06347 0.787797 4.05061L0.876224 3.88984C1.61579 3.97826 2.27497 4.11492 3.26373 4.58919C3.42451 4.16315 4.36504 1.66315 4.2123 0.0634766L6.84901 1.38984C6.98567 1.45415 7.09821 1.56669 7.09821 1.75158C7.09821 2.13743 6.58373 2.15351 6.35865 2.17762L6.35061 2.18566ZM8.82654 16.84C7.78955 16.84 7.65289 15.6262 7.63681 15.4654C7.52427 14.34 7.47604 13.713 6.89724 12.6037L7.0339 12.4429C7.88601 12.8046 9.93589 13.8577 9.93589 15.4573C9.93589 15.795 9.79923 16.8319 8.83458 16.8319L8.82654 16.84ZM20.6917 19.7017H10.2012C8.82654 19.7017 8.33618 19.7499 7.77347 19.8384L7.41172 19.0265C8.51303 19.1149 9.68669 19.1631 10.4745 19.1631C10.4745 17.1133 10.4986 8.0699 10.4745 6.22102C10.4504 2.84482 10.3378 2.23389 10.0886 1.10849L12.5887 2.18566H15.9006L16.5518 1.33357C16.6643 1.1728 16.7769 1.04418 16.9135 1.04418C17.0502 1.04418 17.1627 1.13261 17.3396 1.26926L18.7785 2.44289C18.8911 2.53132 19.0518 2.66797 19.0518 2.86894C19.0518 3.09402 18.9634 3.14225 18.1997 3.59241C18.1515 5.93164 18.1354 8.56829 18.1354 10.594V19.1712H18.1836L19.084 17.6438C19.1322 17.5554 19.2608 17.3544 19.4216 17.3544C19.5342 17.3544 19.7351 17.5313 19.8075 17.6278L20.8686 19.1149C20.9329 19.2274 21.0696 19.4043 21.0696 19.4766C21.0696 19.6776 20.8927 19.7258 20.7078 19.7258L20.6917 19.7017ZM15.9408 2.73228H12.5646V7.68404H15.9408V2.73228ZM15.9408 8.22263H12.5646V13.2387H15.9408V8.22263ZM15.9408 13.7773H12.5646V19.1551H15.9408V13.7773Z" fill="white"/>
<path d="M36.2871 12.5397C36.2228 13.3034 36.3354 16.7519 36.3354 17.4432C36.3354 18.0059 36.3354 18.6169 35.0331 18.6169C34.4221 18.6169 34.3578 18.3275 34.3337 17.8934H32.2436C32.2678 18.7053 32.308 19.6297 31.07 19.6297C30.2822 19.6297 30.2822 19.1313 30.2822 18.8661C30.2822 18.6008 30.3706 17.3146 30.3706 17.0172C30.4349 14.8548 30.459 13.1265 30.459 12.8532C30.459 12.0654 30.4349 11.3902 30.4108 11.0767C30.1375 11.5268 29.6712 11.6635 29.3979 11.6635C28.8593 11.6635 28.6101 11.1892 28.5458 10.6748C28.4815 10.1764 28.4815 10.1362 28.4333 9.93521C28.0474 10.1121 27.8947 10.1844 27.6937 10.2728V12.186C28.7307 12.7969 30.3465 13.85 30.3465 15.4497C30.3465 16.2616 29.8481 16.7358 29.3336 16.7358C28.4976 16.7358 28.4333 16.0124 28.3448 14.7985C28.2323 13.3838 27.8706 12.8211 27.6937 12.5719C27.7178 13.9223 27.6696 16.3339 27.6937 17.6844C27.6937 17.9336 27.7821 19.5092 27.7821 19.5735C27.7821 20.4095 27.332 20.8757 26.295 20.8757C25.6679 20.8757 25.4831 20.5622 25.4831 20.0638C25.4831 19.9513 25.5956 18.2873 25.5956 17.9738C25.6197 17.1619 25.6438 14.7101 25.6438 13.4722C25.5313 13.5847 25.4831 13.6088 25.3303 13.7214C24.4782 16.1088 23.8914 17.4834 22.6775 19.26L22.4766 19.1715C23.2644 16.8564 23.4251 13.633 23.4251 13.231C23.4251 12.8452 23.401 12.5558 23.3769 12.3066L25.3544 12.8934C25.467 12.9416 25.5554 12.9577 25.6438 12.9818V11.0204C25.3303 11.133 24.2692 11.5188 24.1165 11.5831C23.9396 12.0092 23.8673 12.0976 23.6663 12.0976C23.5296 12.0976 23.4653 11.985 23.3287 11.6233L22.5891 9.48505C23.602 9.57347 23.8753 9.57347 25.1776 9.54936C25.2258 9.48505 27.2516 5.67476 27.7017 3.29534L29.7757 4.35644C30.0491 4.49309 30.1616 4.51721 30.2018 4.69406L30.2902 4.60563C31.5523 4.99148 33.1681 5.86769 33.1681 7.03328C33.1681 7.64421 32.7662 8.22299 32.0186 8.22299C31.2308 8.22299 31.1825 7.9336 31.0057 6.92074C30.8931 6.33393 30.6922 5.43361 30.2179 4.78248C30.1536 5.00756 30.0571 5.03168 29.3658 5.29695C27.9509 7.32267 26.6165 8.78569 25.9011 9.52524C26.1262 9.52524 27.9911 9.46093 28.3127 9.4127C28.0394 8.46415 27.8625 8.12653 27.5892 7.81302L27.7259 7.63618C28.3368 7.88537 30.3787 8.73746 30.5635 10.4256L32.3401 11.1892H34.1408L34.7276 10.4014C34.8402 10.2407 34.9527 10.1281 35.1135 10.1281C35.2501 10.1281 35.427 10.2407 35.5878 10.3532L36.6891 11.1651C36.9142 11.3259 37.0026 11.4384 37.0026 11.6153C37.0026 11.8886 36.9383 11.9529 36.3032 12.5397H36.2871ZM27.5088 2.25837C26.6728 3.27123 26.5442 3.40788 25.3705 4.64583C25.8689 5.00756 26.4718 5.54615 26.4718 6.39823C26.4718 7.25032 25.7081 7.49952 25.2982 7.49952C24.6872 7.49952 24.6229 7.38698 24.221 6.19727C23.9477 5.40949 23.4814 4.42074 22.8946 3.94647L23.0071 3.80981C23.4573 3.85805 23.9718 3.92235 24.7837 4.32428C24.9203 3.87412 25.5072 2.02525 25.5715 0.296957L28.0715 1.35805C28.3448 1.47059 28.4735 1.58313 28.4735 1.7439C28.4735 1.94486 28.16 2.08152 27.5088 2.25837ZM42.5011 20.7551C41.3515 20.7551 39.8001 19.1153 38.964 17.0895C36.7132 19.5413 34.6392 20.4014 33.763 20.7551L33.6504 20.5783C36.0781 18.8419 37.4769 16.6635 38.3129 15.3773C37.7743 13.6651 37.3884 11.6876 37.2357 9.0992H32.533C31.2951 9.0992 30.7565 9.14743 30.1053 9.25997L29.7436 8.42395C30.8047 8.51238 31.8578 8.56061 32.943 8.56061H33.3449C33.4575 8.19887 34.1569 5.88377 34.181 4.23586L36.3193 5.04775C36.6328 5.16029 36.7212 5.27283 36.7212 5.4738C36.7212 5.69888 36.6087 5.81142 35.9334 6.10081C35.5476 6.61528 34.0443 8.35161 33.8434 8.55257H37.1955C37.1473 7.04132 37.083 5.40145 37.083 4.02685C36.9945 4.05097 36.9463 4.05097 36.882 4.05097H32.5411C31.3915 4.05097 30.8529 4.0992 30.0893 4.21174L29.7275 3.37573C30.8047 3.48827 31.705 3.51239 32.1793 3.51239V2.61207C32.1793 1.80017 32.0427 0.988274 31.8176 0.224609L34.4302 0.763194C34.7437 0.827502 34.9045 0.923965 34.9045 1.10081C34.9045 1.30178 34.8402 1.35001 34.2051 1.77605C34.2051 2.02525 34.181 3.23907 34.181 3.51239H34.6553L35.1939 2.67637C35.2823 2.5156 35.4189 2.38699 35.5556 2.38699C35.6923 2.38699 35.8289 2.54776 35.9575 2.63618L36.9222 3.39985C36.9704 3.44808 37.0106 3.46415 37.083 3.5365V2.61207C37.083 2.0976 37.0187 1.12493 36.9061 0.272841L39.382 0.859657C39.7438 0.948081 39.8965 0.996313 39.8965 1.22139C39.8965 1.39824 39.8081 1.51078 39.1972 1.8484C39.173 2.13779 39.1328 2.29856 39.1087 2.68441L39.157 2.6201C41.1345 3.1185 42.6458 3.56866 42.6458 5.00756C42.6458 5.81946 42.0589 6.22139 41.5445 6.22139C40.8933 6.22139 40.7326 5.77123 40.3306 4.69406C40.2422 4.46898 39.792 3.23104 39.1168 2.82911C39.0283 3.8902 38.9801 4.87894 38.9801 5.91592C38.9801 7.20209 39.0444 8.16672 39.0927 8.56865H40.2663L41.1023 7.30659C41.239 7.10563 41.3033 7.0172 41.44 7.0172C41.5766 7.0172 41.7294 7.15386 41.8419 7.2664L43.0799 8.52846C43.2406 8.70531 43.305 8.77765 43.305 8.89019C43.305 9.06704 43.104 9.11527 42.9673 9.11527H39.1409C39.3419 11.141 39.5669 12.2021 39.7036 12.7809C39.8805 12.3307 40.3547 11.1571 40.5155 9.85482L42.5895 11.4786C42.8628 11.6796 42.9754 11.7921 42.9754 11.9529C42.9754 12.1297 42.7503 12.2021 42.2519 12.3789C41.9143 12.9899 41.4159 13.9304 40.4512 15.305C40.8531 16.2937 41.4641 17.1538 41.8258 17.1538C42.1876 17.1538 42.8869 15.5783 43.0397 15.2166L43.2165 15.2809C43.1924 15.731 43.104 17.8452 43.104 18.1426C43.104 18.5445 43.1522 18.6571 43.3291 19.1555C43.3773 19.268 43.4416 19.5574 43.4416 19.8307C43.4416 20.3934 43.1281 20.7792 42.5172 20.7792L42.5011 20.7551ZM34.3578 11.7358H32.2195V14.1233H34.3578V11.7358ZM34.3578 14.6619H32.2195V17.3629H34.3578V14.6619Z" fill="white"/>
<path d="M54.5668 18.8669L54.5186 18.7062C57.8305 17.42 61.6087 14.7673 61.6087 9.90392C61.6087 6.64026 59.5589 3.87499 55.1938 3.87499C54.5668 3.87499 54.3819 3.92322 54.1166 4.01165C56.1183 5.07274 56.1183 6.03737 56.1183 6.32676C56.1183 7.13865 54.1568 11.3026 52.6938 13.6901C50.9574 16.5277 50.1053 17.2673 49.3175 17.2673C48.594 17.2673 48.393 16.9296 47.6937 15.8525C47.4043 15.4023 47.3802 15.3782 46.8174 14.9039C46.1181 14.3171 45.8046 13.2399 45.8046 12.1788C45.8046 7.20296 50.0812 3.11133 55.7083 3.11133C60.0492 3.11133 64.2856 5.65152 64.2856 10.4747C64.2856 17.5004 56.3594 18.6258 54.5588 18.8669H54.5668ZM53.3529 4.1483C50.7645 4.91197 47.7499 8.15151 47.7499 11.8895C47.7499 12.8139 48.176 15.0165 49.1246 15.0165C50.0731 15.0165 51.1503 12.7174 52.0748 10.764C52.6134 9.66277 53.9237 6.93769 53.9237 5.61132C53.9237 4.84766 53.5378 4.34927 53.361 4.1483H53.3529Z" fill="white"/>
<path d="M76.1752 2.93285C76.1752 3.29458 76.1993 5.02288 76.1993 5.40873C76.1993 5.79458 76.1993 6.67079 74.7362 6.67079C73.9967 6.67079 73.9726 6.22063 73.9967 5.63381H70.4596C70.4355 6.01966 70.3953 6.37336 70.2345 7.20937L71.8745 7.90873H73.7877L74.3986 7.20937C74.5112 7.09683 74.5996 6.98429 74.7121 6.98429C74.8247 6.98429 74.9854 7.09683 75.098 7.18526L76.2716 8.14988C76.3842 8.23831 76.545 8.39908 76.545 8.53574C76.545 8.71258 76.2073 9.01001 76.0466 9.14667C76.0707 10.6579 76.0707 12.1852 76.0466 12.3621C75.9983 12.7238 75.6607 13.174 74.7845 13.174C73.9083 13.174 73.9484 12.7881 73.9324 12.137H71.7699V12.8766C71.7699 13.3026 71.7699 13.4634 71.5207 13.7287C71.2072 14.1145 70.7812 14.2029 70.4596 14.2029C69.8085 14.2029 69.8085 13.8171 69.8085 13.2142C69.8085 12.6113 69.8728 9.5486 69.8728 8.84924C69.1332 11.1643 68.1605 12.4746 66.6734 13.7769L66.4724 13.6885C68.4499 10.3605 68.4982 5.85889 68.4982 4.59683C68.4982 4.03413 68.4982 2.09684 68.2249 0.722241L70.7249 1.7351H73.9404L74.5674 1.05986C74.6559 0.947321 74.7684 0.858897 74.8568 0.858897C74.9694 0.858897 75.1301 0.947321 75.2588 1.03575L76.4726 1.82353C76.6495 1.93607 76.762 2.09684 76.762 2.24957C76.762 2.36211 76.6253 2.53896 76.1511 2.92481L76.1752 2.93285ZM86.7783 20.1917H69.8085C68.4339 20.1917 67.9435 20.2399 67.3808 20.3524L67.019 19.5164C68.3696 19.629 69.9693 19.6531 70.2185 19.6531H75.934V16.7029H71.8343C70.4596 16.7029 69.9693 16.7512 69.4066 16.8637L69.0207 16.0277C70.3953 16.1402 71.995 16.1643 72.2362 16.1643H75.926C75.926 14.0502 75.8376 13.6885 75.6527 13.0373L78.2653 13.7367C78.4903 13.801 78.828 13.9377 78.828 14.1386C78.828 14.3637 78.5788 14.5406 78.1768 14.838V16.1643H81.8907L82.7428 14.9264C82.8795 14.7496 82.992 14.6531 83.0805 14.6531C83.1689 14.6531 83.3055 14.7174 83.4824 14.8782L84.9455 16.1161C85.058 16.2045 85.1705 16.3412 85.1705 16.4537C85.1705 16.6547 84.9696 16.7029 84.8329 16.7029H78.1688V19.6531H83.3457L84.3586 18.3267C84.4712 18.1659 84.5837 18.0534 84.6962 18.0534C84.7847 18.0534 84.9454 18.1659 85.0982 18.2785L86.8748 19.6049C86.9873 19.6692 87.0998 19.8299 87.0998 19.9425C87.0998 20.1434 86.9632 20.1917 86.7622 20.1917H86.7783ZM74.0128 2.28172H70.6124V2.84442C70.6124 4.05825 70.5481 4.80584 70.5239 5.09523H74.0128V2.28172ZM73.9243 8.44731H71.7619V11.5984H73.9243V8.44731ZM87.0918 8.06146H82.4132C82.4132 8.14988 82.4132 9.81387 82.4374 10.4891H83.6512L84.439 9.38782C84.5516 9.21098 84.6641 9.11451 84.7766 9.11451C84.8892 9.11451 85.0258 9.17882 85.1786 9.33959L86.4165 10.4409C86.5532 10.5534 86.6416 10.6901 86.6416 10.8267C86.6416 10.9634 86.4648 11.0277 86.304 11.0277H82.4293C82.4293 11.6547 82.4776 13.7287 82.3811 14.0422C82.2685 14.3557 81.9309 14.8058 81.0788 14.8058C80.7412 14.8058 80.3151 14.7576 80.3151 13.9055C80.3151 13.6563 80.3392 11.4055 80.3392 11.0277H79.5515C78.1768 11.0277 77.6865 11.092 77.1238 11.1885L76.762 10.3525C78.1366 10.4891 79.7122 10.4891 79.9614 10.4891H80.3473V8.06146H79.1736C77.799 8.06146 77.3086 8.12577 76.7459 8.22223L76.3842 7.38622C77.7347 7.52288 79.3344 7.52288 79.5836 7.52288H81.6737C82.0354 6.84763 82.6223 4.91034 82.6866 3.83317H79.5836C78.8601 3.83317 78.4341 3.85729 78.0321 3.8814C78.1929 3.92963 80.6849 4.82995 80.6849 6.30905C80.6849 6.84763 80.3473 7.48268 79.5836 7.48268C78.7315 7.48268 78.619 6.96821 78.4099 5.93124C78.3215 5.52931 78.1206 4.51645 77.6704 3.95375L77.6945 3.90552C77.4694 3.92963 77.381 3.95375 77.1559 3.99394L76.7942 3.15793C78.008 3.27047 79.3183 3.29458 80.3473 3.29458C80.2991 1.49394 80.2991 1.29298 80.074 0.320312L82.5258 0.858897C82.8634 0.923206 83.0242 1.05986 83.0242 1.26083C83.0242 1.43767 82.8634 1.59845 82.4374 1.79941C82.4132 2.6515 82.4132 2.74796 82.4132 3.28655H83.8763L84.6159 2.16115C84.7043 2.00037 84.8409 1.88783 84.9535 1.88783C85.066 1.88783 85.2429 2.00037 85.3795 2.11291L86.7059 3.23832C86.8185 3.32674 86.931 3.46339 86.931 3.57593C86.931 3.80101 86.7542 3.82513 86.5934 3.82513H83.4422L84.9937 4.61291C85.267 4.74957 85.3956 4.86211 85.3956 5.03896C85.3956 5.28815 85.1223 5.35246 84.5435 5.44088C83.8441 6.18043 83.1046 6.85567 82.3409 7.51484H84.431L85.1947 6.3412C85.3072 6.16436 85.4197 6.05182 85.5323 6.05182C85.6448 6.05182 85.7815 6.14024 85.9342 6.30101L87.2204 7.47464C87.3571 7.58718 87.4214 7.72384 87.4214 7.83638C87.4214 8.01323 87.2445 8.06146 87.0838 8.06146H87.0918Z" fill="white"/>
<path d="M98.7478 18.8669L98.6996 18.7062C102.012 17.42 105.79 14.7673 105.79 9.90392C105.79 6.64026 103.74 3.87499 99.3749 3.87499C98.7478 3.87499 98.5629 3.92322 98.2977 4.01165C100.299 5.07274 100.299 6.03737 100.299 6.32676C100.299 7.13865 98.3379 11.3026 96.8748 13.6901C95.1384 16.5277 94.2863 17.2673 93.4985 17.2673C92.775 17.2673 92.5741 16.9296 91.8747 15.8525C91.5853 15.4023 91.5612 15.3782 90.9985 14.9039C90.2991 14.3171 89.9856 13.2399 89.9856 12.1788C89.9856 7.20296 94.2622 3.11133 99.8893 3.11133C104.23 3.11133 108.467 5.65152 108.467 10.4747C108.467 17.5004 100.54 18.6258 98.7398 18.8669H98.7478ZM97.534 4.1483C94.9455 4.91197 91.931 8.15151 91.931 11.8895C91.931 12.8139 92.357 15.0165 93.3056 15.0165C94.2542 15.0165 95.3314 12.7174 96.2558 10.764C96.7944 9.66277 98.1047 6.93769 98.1047 5.61132C98.1047 4.84766 97.7189 4.34927 97.542 4.1483H97.534Z" fill="white"/>
<path d="M121.803 6.11058C120.63 12.6861 118.065 17.453 111.288 20.3389L111.2 20.1781C115.879 16.5125 118.965 11.1267 119.416 5.21026H116.465C115.991 6.31155 115.477 7.34852 114.826 8.3855C116.353 8.83566 117.84 9.78421 117.84 11.0623C117.84 11.625 117.454 12.5254 116.554 12.5254C115.654 12.5254 115.517 11.8742 115.34 10.8373C115.316 10.6765 115.139 9.64755 114.576 8.74723C112.953 11.1106 111.562 12.1234 110.927 12.5977L110.814 12.4852C113.403 8.72312 114.93 2.83084 114.93 1.0302C114.93 0.644351 114.906 0.379079 114.882 0.129883L117.808 1.19097C117.985 1.25528 118.21 1.36782 118.21 1.57683C118.21 1.91445 117.808 2.02699 117.398 2.11541C117.084 3.49001 116.859 4.16525 116.658 4.67972H119.223L120.059 3.73116C120.195 3.57039 120.26 3.50608 120.372 3.50608C120.485 3.50608 120.597 3.57039 120.734 3.68293L122.398 4.9691C122.575 5.10576 122.671 5.19418 122.671 5.39515C122.671 5.82119 122.173 5.98196 121.795 6.11862L121.803 6.11058ZM130.332 15.154C129.569 14.8164 128.331 14.2054 126.892 12.7665C126.916 13.8437 127.028 18.5945 127.028 19.5672C127.028 20.8051 125.589 20.9176 125.252 20.9176C124.625 20.9176 124.287 20.6684 124.287 20.0173C124.287 19.6556 124.4 18.08 124.4 17.7665C124.464 15.154 124.488 10.162 124.488 9.50286C123.25 7.18775 122.913 5.58807 122.736 4.46267L122.985 4.48679C123.186 4.98518 123.523 5.83727 124.512 7.32441C124.464 2.98358 124.464 2.12345 123.974 0.186153L127.326 0.998049C127.487 1.04628 127.688 1.11059 127.688 1.31155C127.688 1.58486 127.237 1.89837 126.876 2.09933C126.827 4.26171 126.827 4.39837 126.876 9.95302C128.765 11.5527 130.413 12.1154 132.302 12.3405V12.5173C131.152 13.1443 130.774 14.0929 130.34 15.154H130.332Z" fill="white"/>
<path d="M150.654 4.93683C148.765 4.93683 146.916 4.91271 145.3 5.83715C143.339 6.93843 141.747 9.66351 141.747 12.2519C141.747 15.3548 144.898 16.4641 146.675 16.6651C148.275 16.842 149.625 17.0027 149.625 18.4657C149.625 19.3902 148.95 19.5911 148.299 19.5911C145.284 19.5911 140.244 17.903 140.244 12.9754C140.244 8.58634 143.869 6.04615 145.308 5.00917C143.347 5.14583 138.757 7.14744 137.993 7.62171C137.069 8.18441 136.819 8.34518 136.369 8.34518C135.445 8.34518 134.03 7.30821 134.03 5.69245C134.03 4.88056 134.368 4.1812 134.569 4.00435C134.995 5.01721 135.469 5.57991 136.458 5.57991C138.098 5.57991 147.913 2.94326 148.588 2.71818C149.239 2.51722 149.625 2.35645 150.164 2.35645C150.702 2.35645 152.503 2.80661 152.503 3.95612C152.503 4.94487 151.579 4.94487 150.654 4.94487V4.93683ZM150.156 10.2905C149.681 10.2905 149.617 10.178 149.054 9.10081C148.58 8.20049 148.017 7.61367 147.206 6.76158C148.307 7.01078 150.984 7.71014 150.984 9.35C150.984 9.68762 150.823 10.2986 150.148 10.2986L150.156 10.2905ZM152.792 9.27766C152.342 9.27766 152.23 9.10081 151.691 8.08795C151.08 6.93843 150.429 6.46416 149.69 5.92557C151.104 6.014 153.58 6.82589 153.58 8.31303C153.58 8.81142 153.267 9.27766 152.792 9.27766Z" fill="white"/>
<path d="M159.408 20.2403C158.443 20.2403 158.194 19.5651 157.672 18.2628C156.795 15.9879 155.509 14.9992 154.906 14.549L155.019 14.2998C156.643 14.6374 158.122 14.975 159.456 16.0522C160.558 16.9525 160.943 17.877 160.943 18.6648C160.943 19.4525 160.333 20.2403 159.416 20.2403H159.408Z" fill="white"/>
<path d="M186.194 13.1993H182.866C182.866 13.6495 182.954 15.627 182.954 16.037C182.954 16.8247 182.102 17.1382 181.555 17.1382C180.566 17.1382 180.607 16.5112 180.655 15.9485H177.029C177.054 16.672 177.078 18.7379 176.917 19.2122C176.828 19.5257 176.418 20.8119 173.943 21.1736C173.669 20.0241 172.978 18.8987 171.129 18.135V17.9984C171.941 18.1109 172.906 18.1752 173.742 18.1752C174.465 18.1752 174.594 18.1109 174.666 17.6366C174.714 17.2106 174.714 17.0257 174.714 15.9485H170.574C169.2 15.9485 168.709 15.9968 168.147 16.1093L167.761 15.2733C169.135 15.3858 170.735 15.4099 170.976 15.4099H174.714L174.738 13.2074H168.348C166.973 13.2074 166.483 13.2717 165.92 13.3681L165.558 12.5321C166.933 12.6688 168.508 12.6688 168.758 12.6688H174.771V10.5948H170.43C169.055 10.5948 168.565 10.6591 168.002 10.7556L167.64 9.9196C169.015 10.0563 170.59 10.0563 170.84 10.0563H174.779C174.779 8.59324 174.754 8.43246 174.754 7.96623H171.201C171.225 8.30385 171.25 9.13986 169.803 9.13986C169.063 9.13986 168.95 8.82635 168.95 8.37619C168.95 8.08681 169.015 6.84886 169.015 6.59967C169.015 4.84726 168.967 4.54983 168.854 3.96302L171.33 4.91157H174.73V3.17524H168.942C167.568 3.17524 167.077 3.22347 166.515 3.33601L166.153 2.5C167.528 2.63665 169.103 2.63665 169.352 2.63665H174.706C174.706 1.96141 174.618 1.03698 174.304 0L177.48 0.739549C177.729 0.803857 177.93 0.876205 177.93 1.05305C177.93 1.32636 177.431 1.61575 177.054 1.77653C177.029 1.86495 177.029 2.5 177.029 2.62861H181.893L182.93 1.21382C183.066 1.03698 183.155 0.940513 183.267 0.940513C183.38 0.940513 183.541 1.02894 183.694 1.16559L185.446 2.58038C185.559 2.66881 185.671 2.80546 185.671 2.94212C185.671 3.10289 185.51 3.1672 185.333 3.1672H177.005V4.90353H180.446L181.033 4.18006C181.193 4.00321 181.282 3.90675 181.394 3.90675C181.507 3.90675 181.62 3.97106 181.796 4.0836L183.195 5.00803C183.332 5.09646 183.42 5.209 183.42 5.32154C183.42 5.54662 183.107 5.7717 182.793 5.99678C182.769 7.68488 182.793 7.88584 182.769 7.95819C182.705 8.38423 182.03 8.7942 181.37 8.7942C180.583 8.7942 180.583 8.43246 180.607 7.95819H176.981V10.0482H180.583L181.193 9.28455C181.354 9.08359 181.467 8.99516 181.579 8.99516C181.668 8.99516 181.804 9.05947 182.03 9.22024L183.38 10.1447C183.517 10.2331 183.605 10.3456 183.605 10.4823C183.605 10.7074 183.493 10.7958 182.906 11.2218C182.882 12.1222 182.882 12.2106 182.882 12.6608H183.468L184.345 11.3987C184.457 11.2218 184.546 11.1254 184.706 11.1254C184.843 11.1254 184.98 11.2379 185.108 11.3746L186.322 12.6125C186.435 12.7251 186.547 12.8617 186.547 12.9743C186.547 13.1511 186.37 13.1993 186.21 13.1993H186.194ZM174.714 5.43408H171.161V7.41157H174.738L174.714 5.43408ZM180.615 5.43408H176.989L176.965 7.41157H180.615V5.43408ZM180.679 10.5868H176.965L176.989 12.6608H180.679V10.5868ZM180.679 13.1993H177.013L177.037 15.4019H180.687V13.1993H180.679Z" fill="white"/>
<path d="M208.501 5.33669H201.813L203.115 6.07624C203.204 6.12447 203.405 6.23701 203.405 6.41386C203.405 6.70325 203.115 6.72736 202.593 6.7756C201.757 7.56338 200.366 8.41547 200.141 8.52801H203.694L204.642 7.24183C204.779 7.06498 204.843 6.96852 204.98 6.96852C205.117 6.96852 205.294 7.12929 205.382 7.1936L206.845 8.47977C206.958 8.59231 207.07 8.68074 207.07 8.84151C207.07 9.04247 206.893 9.06659 206.733 9.06659H199.554V10.9155H202.118L202.97 9.79006C203.131 9.5891 203.22 9.50067 203.332 9.50067C203.421 9.50067 203.557 9.56498 203.782 9.74987L205.294 10.8753C205.43 10.9637 205.543 11.0762 205.543 11.237C205.543 11.438 205.342 11.4621 205.205 11.4621H199.554L199.578 13.4637H204.843L205.905 12.0891C206.041 11.9122 206.13 11.7997 206.242 11.7997C206.379 11.7997 206.467 11.864 206.668 12.0489L208.196 13.4235C208.308 13.536 208.397 13.6245 208.397 13.7611C208.397 13.9862 208.22 14.0103 208.059 14.0103H200.117C201.716 15.4251 204.908 17.3624 208.622 17.7483V17.8849C207.609 18.4476 206.797 19.4364 206.459 20.2965C202.432 18.745 200.294 15.2804 199.57 14.0184C199.594 15.8672 199.658 18.946 199.658 19.6454C199.658 20.0312 199.634 20.2081 199.482 20.409C199.281 20.6823 198.718 21.02 198.067 21.02C197.215 21.02 197.215 20.409 197.215 20.0714C197.215 20.0071 197.327 15.6823 197.351 14.8463C195.752 16.7836 192.737 19.2354 188.436 20.2965L188.388 20.1357C191.427 18.4717 193.227 16.4862 194.98 14.0103H191.539C190.165 14.0103 189.674 14.0585 189.112 14.1711L188.75 13.3351C190.1 13.4476 191.7 13.4717 191.949 13.4717H197.375V11.4701H193.324C191.949 11.4701 191.459 11.5344 190.896 11.6309L190.534 10.7949C191.909 10.9315 193.485 10.9315 193.734 10.9315H197.384C197.384 10.6422 197.359 9.35598 197.359 9.08267H192.496C191.097 9.08267 190.631 9.14698 190.068 9.24344L189.682 8.40743C191.057 8.54408 192.657 8.54408 192.898 8.54408H195.084C194.859 8.34312 194.811 8.25469 194.498 7.37045C194.136 6.30936 193.758 5.77077 193.436 5.34473H191.162C189.787 5.34473 189.297 5.40904 188.734 5.5055L188.372 4.66949C189.248 4.75791 190.06 4.80614 190.647 4.80614H195.551C195.551 1.71933 195.438 1.22898 195.237 0.240234L198.027 0.891359C198.187 0.93959 198.412 1.0039 198.412 1.22898C198.412 1.54248 198.027 1.70326 197.673 1.83991C197.625 2.96531 197.625 3.47978 197.625 4.71772V4.80614H199.064C199.064 3.39136 199.064 1.59071 198.702 0.280427L201.54 0.867243C201.765 0.915475 201.925 1.0039 201.925 1.20486C201.925 1.49425 201.588 1.65502 201.202 1.8158C201.202 2.29007 201.154 4.3801 201.178 4.80614H201.676C201.877 4.49264 203.003 2.53123 203.163 0.465315L205.776 1.65502C205.977 1.74345 206.114 1.85599 206.114 1.99264C206.114 2.3785 205.503 2.35438 205.302 2.35438C203.999 3.47978 203.3 4.0666 202.239 4.80614H205.165L206.178 3.5039C206.29 3.36724 206.427 3.21451 206.54 3.21451C206.652 3.21451 206.741 3.26274 206.99 3.4637L208.59 4.76595C208.766 4.92672 208.839 5.01515 208.839 5.12769C208.839 5.32865 208.662 5.35277 208.501 5.35277V5.33669ZM193.356 4.59714C192.633 4.59714 192.432 4.09875 192.054 3.13412C191.99 2.97335 191.58 1.94441 190.679 1.04409L190.768 0.907436C192.842 1.29329 194.506 1.87207 194.506 3.33509C194.506 4.05856 193.991 4.59714 193.356 4.59714ZM194.184 5.33669C195.358 5.72254 196.933 6.2129 196.933 7.58749C196.933 8.15019 196.572 8.39939 196.371 8.53604H199.457C199.747 7.94923 200.334 6.34955 200.519 5.33669H194.192H194.184Z" fill="white"/>
<path d="M226.805 10.1372C224.667 10.4748 223.091 10.724 220.503 11.8012C220.567 12.187 220.68 12.8382 220.68 13.8912C220.68 14.478 220.68 16.3028 219.466 16.3028C218.815 16.3028 218.292 15.6034 218.292 14.7031C218.292 14.4298 218.357 13.2642 218.357 13.0391V12.814C217.143 13.5134 215.181 14.8156 215.181 16.1018C215.181 17.589 217.344 17.6774 218.534 17.6774C219.723 17.6774 220.833 17.5166 221.974 17.3156C222.263 17.2674 222.963 17.179 223.1 17.179C223.911 17.179 224.723 18.0311 224.723 18.5938C224.723 19.1082 224.362 19.4057 224.048 19.5182C223.437 19.7192 221.371 19.9443 220.045 19.9443C218.63 19.9443 213.903 19.8317 213.903 16.9539C213.903 14.679 216.556 12.7256 218.268 11.6404C218.107 10.6034 217.906 9.47804 216.644 9.47804C215.294 9.47804 214.257 10.6034 213.606 11.7047C213.332 12.1549 212.641 13.3446 212.368 13.5697C212.231 13.6822 212.054 13.7465 211.869 13.7465C211.146 13.7465 210.993 12.9587 210.993 12.3076C210.993 11.4716 211.13 11.2304 212.255 10.105C213.381 8.97965 214.305 7.62917 215.157 6.27869C214.755 6.32692 214.506 6.34299 214.12 6.34299C211.733 6.34299 211.082 4.83174 211.13 3.89123C211.894 4.56647 212.73 4.83978 214.144 4.83978C214.418 4.83978 215.093 4.81567 216.106 4.67901C216.443 4.06808 217.207 2.70152 217.207 2.20313C217.207 1.81728 216.58 1.43946 215.495 1.39123C215.832 1.00538 216.371 0.466797 217.585 0.466797C218.799 0.466797 219.948 1.25458 219.948 1.79316C219.948 2.17901 219.836 2.30763 219.297 2.89445C219.12 3.07129 219.024 3.18384 218.349 4.1565C218.751 4.01985 220.463 3.30441 220.825 3.16776C221.026 3.10345 221.186 3.05522 221.339 3.05522C221.95 3.05522 222.826 3.70634 222.826 4.13239C222.826 4.55843 222.464 4.78351 222.127 4.92017C220.728 5.43464 219.337 5.73206 217.038 6.04557C216.701 6.56004 215.149 8.74653 214.9 9.2208C215.414 8.99572 216.162 8.6581 217.328 8.6581C219.289 8.6581 219.828 9.7192 220.141 10.5472C220.752 10.2337 223.919 8.58576 224.056 8.52145C224.595 8.23206 224.643 8.04717 224.643 7.87032C224.643 7.58093 224.555 7.5327 223.678 7.10666C223.855 6.99412 224.128 6.85746 224.667 6.85746C226.106 6.85746 227.641 8.11952 227.641 9.28511C227.641 9.93624 227.256 10.0488 226.789 10.1211L226.805 10.1372Z" fill="white"/>
<path d="M249.739 19.5006H232.657C231.282 19.5006 230.792 19.5649 230.229 19.6613L229.868 18.8253C231.242 18.962 232.818 18.962 233.067 18.962H239.771C241.146 15.7626 242.858 9.37195 242.786 6.80765L246.21 8.29479C246.323 8.34302 246.436 8.45556 246.436 8.60829C246.436 8.83337 246.186 8.94591 245.374 9.34784C243.325 14.0504 242.384 16.1002 240.374 18.962H245.752L246.966 17.2739C247.127 17.0729 247.191 16.9845 247.304 16.9845C247.44 16.9845 247.553 17.0729 247.73 17.2096L249.844 18.9459C249.957 19.0343 250.069 19.1469 250.069 19.2835C250.069 19.4845 249.868 19.5086 249.731 19.5086L249.739 19.5006ZM248.678 5.6099H233.799C232.424 5.6099 231.934 5.65813 231.371 5.77067L231.009 4.93466C232.384 5.0472 233.959 5.07132 234.209 5.07132H238.598C238.622 3.24656 238.485 1.80766 238.011 0.521484L241.612 1.3575C241.725 1.38161 241.886 1.44592 241.886 1.58258C241.886 1.69512 241.837 1.75942 241.749 1.85589C241.636 1.96843 241.05 2.37036 240.937 2.4829C240.913 2.75621 240.913 4.7337 240.913 5.07132H244.916L245.929 3.38322C246.018 3.22245 246.106 3.09383 246.267 3.09383C246.403 3.09383 246.492 3.18225 246.693 3.34302L248.807 5.05524C248.92 5.14366 249.008 5.23209 249.008 5.36874C249.008 5.59382 248.831 5.61794 248.67 5.61794L248.678 5.6099ZM236.861 16.9282C235.688 16.9282 235.559 15.6662 235.511 15.1035C235.286 12.716 235.125 11.9765 234.747 10.5777C234.458 9.50057 234.321 9.00218 233.622 7.53916L233.734 7.45074C235.061 8.30282 238.397 12.0408 238.397 15.0552C238.397 16.5424 237.408 16.9202 236.869 16.9202L236.861 16.9282Z" fill="white"/>
<path d="M259.957 20.403C259.169 20.403 258.654 20.3548 258.18 20.3146V20.1378C261.508 19.8243 263.695 18.4979 264.844 17.5494C266.307 16.3596 266.757 15.1378 266.757 13.8355C266.757 12.887 266.42 11.1828 264.145 11.1828C261.605 11.1828 259.531 13.3452 258.453 14.7198C258.317 14.8805 257.843 15.6442 257.714 15.7809C257.553 15.9577 257.328 16.0703 257.087 16.0703C256.46 16.0703 255.447 14.768 255.447 13.9963C255.447 13.6828 255.495 13.5703 255.873 12.5815C256.259 11.5687 256.725 8.75515 256.934 7.45291C256.484 7.51721 256.098 7.56545 255.56 7.56545C253.421 7.56545 252.296 6.44004 252.248 5.1378C252.674 5.47542 253.325 5.97381 254.949 5.97381C255.688 5.97381 256.323 5.83715 257.224 5.6603C257.513 3.57027 257.513 3.36127 257.513 3.096C257.513 2.5333 257.465 1.56867 255.439 1.35967C255.937 0.861274 256.5 0.620117 257.191 0.620117C258.116 0.620117 260.431 1.18282 260.431 2.19568C260.431 2.2841 260.431 2.46899 260.182 2.89503C259.756 3.63458 259.667 3.81947 259.281 5.0976C260.158 4.80821 260.793 4.59921 261.733 4.03651C262.272 3.72301 262.473 3.65066 262.77 3.65066C263.47 3.65066 264.619 4.16513 264.619 4.80018C264.619 5.65226 260.278 6.8259 258.719 7.1394C258.317 8.62654 257.754 10.9416 257.73 12.4288C258.228 12.2921 258.453 12.2037 260.069 11.4802C261.468 10.8532 263.172 10.3548 264.635 10.3548C266.388 10.3548 269.225 11.6169 269.225 14.7439C269.225 18.4818 265.286 20.4191 259.949 20.4191L259.957 20.403Z" fill="white"/>
<path d="M292.12 19.3404H274.901C273.526 19.3404 273.036 19.3887 272.473 19.5012L272.111 18.6652C273.462 18.7777 275.062 18.8019 275.311 18.8019H280.198C280.263 15.6025 280.198 4.44497 280.134 3.02214C280.07 1.80832 279.909 1.24562 279.772 0.707031L283.1 1.54304C283.261 1.59127 283.486 1.63147 283.486 1.88066C283.486 2.10574 283.374 2.21828 282.747 2.69256C282.722 3.61699 282.722 7.73274 282.722 8.56876H286.525L287.65 6.83242C287.763 6.67165 287.827 6.55911 287.964 6.55911C288.1 6.55911 288.277 6.71988 288.39 6.80831L290.303 8.52052C290.44 8.63306 290.528 8.7456 290.528 8.85814C290.528 9.08323 290.327 9.10734 290.166 9.10734H282.714C282.69 15.7472 282.69 17.6122 282.714 18.8099H288.43L289.62 17.0334C289.78 16.8083 289.869 16.744 289.981 16.744C290.094 16.744 290.231 16.8324 290.383 16.9932L292.248 18.7697C292.361 18.8822 292.449 18.9707 292.449 19.1073C292.449 19.3324 292.273 19.3565 292.112 19.3565L292.12 19.3404Z" fill="white"/>
<path d="M299.009 15.8518C299.009 16.0287 299.074 16.8406 299.074 17.0255C299.074 17.339 299.074 18.2875 297.972 18.2875C296.799 18.2875 295.585 16.5351 295.585 12.749C295.585 11.0367 295.721 10.1605 296.461 5.63482C296.509 5.40974 296.525 5.13643 296.525 4.78273C296.525 4.55765 296.525 3.27148 295.85 2.21842C297.426 2.24254 299.09 3.76987 299.09 5.16858C299.09 5.41778 299.041 5.73128 298.776 6.34221C297.876 8.36793 297.136 10.0078 297.136 11.9049C297.136 12.6927 297.313 14.2039 297.675 14.2039C297.924 14.2039 298.262 13.4644 298.599 12.6927C299.025 11.7441 299.588 10.4178 299.974 9.47726L300.151 9.50137C299.186 14.2763 299.001 15.0641 299.001 15.8679L299.009 15.8518ZM313.439 7.41134C313.262 7.49977 312.45 7.8615 309.548 8.28755C309.685 9.95153 309.725 10.7875 309.725 12.0014C309.725 16.1653 308.648 19.0432 303.471 21.2055L303.358 21.093C306.911 18.1026 307.345 15.1284 307.458 13.4403C307.595 11.6155 307.619 9.77468 307.57 8.51263C306.244 8.64928 305.657 8.64928 305.545 8.64928C304.395 8.64928 302.892 8.37597 301.767 6.68787C302.98 7.00138 303.205 7.04961 304.154 7.04961C304.331 7.04961 305.456 7.04961 307.482 6.68787C307.233 2.66055 306.919 2.25058 304.869 2.12196C305.633 1.04479 306.831 1.04479 307.072 1.04479C308.085 1.04479 309.636 1.58338 309.636 2.75701C309.636 3.07051 309.46 4.44511 309.435 4.7345C309.411 5.45797 309.411 5.92421 309.435 6.26183C310.497 5.98852 310.834 5.87598 311.485 5.63482C311.775 5.52228 311.887 5.49816 312.096 5.49816C313.085 5.49816 313.921 6.22163 313.921 6.7361C313.921 7.16215 313.583 7.34703 313.447 7.41134H313.439ZM312.9 4.82292C312.45 4.82292 312.386 4.68627 311.501 3.3599C310.874 2.39527 310.199 1.921 309.902 1.69592C311.252 1.74415 313.592 2.64447 313.592 3.99495C313.592 4.46922 313.302 4.83096 312.892 4.83096L312.9 4.82292ZM314.829 3.52067C314.492 3.52067 314.355 3.34382 313.503 2.12196C313.342 1.87277 312.804 1.17341 311.727 0.570517C313.125 0.506208 315.601 1.19753 315.601 2.57212C315.601 3.07051 315.239 3.52067 314.838 3.52067H314.829Z" fill="white"/>
<path d="M325.77 19.542C323.246 19.542 321.044 18.4648 321.044 16.5517C321.044 14.9279 322.82 14.2365 323.994 14.2365C325.055 14.2365 326.92 14.8234 327.434 17.251C328.809 16.9134 329.959 15.2012 329.959 13.4729C329.959 11.7446 328.881 10.2333 326.719 10.2333C322.667 10.2333 320.352 13.7864 319.13 15.6594C318.857 16.0854 318.455 16.7205 317.892 16.7205C317.193 16.7205 316.855 15.9568 316.855 15.2574C316.855 14.3812 317.354 13.8828 318.519 12.7333C319.484 11.7848 320.007 11.1337 323.986 6.15778C324.725 5.23334 325.626 4.10794 325.899 3.65778C325.963 3.56936 326.012 3.4327 326.012 3.36839C326.012 3.27997 325.963 3.19155 325.811 3.19155C325.385 3.19155 322.37 4.81534 322.233 4.92788C321.872 5.20119 321.671 5.32981 321.381 5.32981C320.545 5.32981 319.356 4.47772 319.356 3.12724C319.356 2.62885 319.532 2.09026 319.806 1.71245C320.28 2.52434 320.642 2.9745 321.518 2.9745C322.667 2.9745 324.959 2.23496 325.618 1.98576C325.819 1.92145 326.566 1.62402 326.719 1.62402C327.619 1.62402 328.97 2.72531 328.97 3.44878C328.97 4.01148 328.769 4.14814 327.619 4.93592C326.783 5.49862 322.828 9.43752 321.992 10.9488C323.343 10.2494 324.942 9.48575 327.169 9.48575C331.285 9.48575 332.459 12.3234 332.459 13.9391C332.459 16.5034 330.095 19.5661 325.77 19.5661V19.542ZM323.118 15.3539C322.692 15.3539 322.04 15.6433 322.04 16.3185C322.04 17.6208 324.468 17.9825 324.967 17.9825C325.352 17.9825 325.505 17.9343 325.73 17.8941C325.143 15.78 323.68 15.3539 323.118 15.3539Z" fill="white"/>
<path d="M338.76 20.1281C336.936 20.1281 335.497 18.6008 335.497 16.8002C335.497 14.9995 336.96 13.4883 338.76 13.4883C340.561 13.4883 342 14.9754 342 16.8002C342 18.6249 340.585 20.1281 338.76 20.1281ZM338.76 14.4529C337.498 14.4529 336.461 15.514 336.461 16.7921C336.461 18.0703 337.498 19.1072 338.76 19.1072C340.023 19.1072 341.035 18.0944 341.035 16.7921C341.035 15.4899 339.998 14.4529 338.76 14.4529Z" fill="white"/>
</svg>
