<svg width="323" height="40" viewBox="0 0 323 40" fill="none" xmlns="http://www.w3.org/2000/svg">
<g clip-path="url(#clip0_461_200)">
<path d="M25.236 35.6647C24.2619 35.6647 23.6987 35.193 20.6698 32.9412C18.5846 31.3589 16.9559 30.7198 16.0275 30.3395C15.6926 34.1736 14.2314 37.2014 8.09745 37.2014C4.80976 37.2014 0 35.5886 0 32.0892C0 27.3117 6.81891 26.2162 11.6743 26.2162C11.4612 25.0295 11.2481 23.9188 11.2481 18.2436C11.2481 16.7982 11.3395 9.72325 11.3395 9.20595C11.3395 7.24322 11.3395 5.11314 7.07766 4.61104C7.59516 4.01766 8.61496 2.86133 10.9133 2.86133C12.8311 2.86133 16.545 3.88073 16.545 5.96517C16.545 6.43683 16.4993 6.6042 16.0275 8.26262C15.51 10.0123 15.3425 11.123 15.2208 11.7925C17.3517 11.4578 20.1219 10.4231 21.4461 9.96669C22.2528 9.66239 22.7703 9.49503 23.3639 9.49503C24.5968 9.49503 26.2254 10.4384 26.2254 11.7468C26.2254 13.3292 24.0945 13.8769 23.6226 13.9986C20.8525 14.7594 18.4628 14.7594 18.1736 14.7594C17.4887 14.7594 16.4689 14.7137 14.9772 13.7856C14.8555 15.1093 14.7185 16.6004 14.7185 18.4718C14.7185 22.306 15.236 25.2425 15.4795 26.5662C24.1706 28.0116 27.1082 31.1611 27.1082 33.1694C27.1082 34.4931 26.5602 35.6342 25.236 35.6342V35.6647ZM8.85849 29.0158C8.34098 29.0158 2.08525 29.1375 2.08525 31.5719C2.08525 33.1086 4.38358 33.6107 6.43839 33.6107C11.1264 33.6107 11.6743 31.5719 11.7657 29.3048C11.0351 29.1831 10.3197 29.0005 8.87371 29.0005L8.85849 29.0158Z" fill="#231815"/>
<path d="M50.2438 40.0003C49.1327 40.0003 49.0566 39.8786 46.1037 35.1467C43.9728 31.7386 42.3594 30.1562 35.1448 23.1726C33.6988 21.7728 33.4857 20.9208 33.4857 20.2361C33.4857 19.5514 33.577 18.6233 35.4035 16.6606C42.2681 9.4183 45.8906 5.58414 45.8906 3.71271C45.8906 2.176 44.0185 1.11096 43.3336 0.776232C43.8054 0.608868 44.0946 0.517578 45.0839 0.517578C48.3716 0.517578 51.568 3.71271 51.568 5.29506C51.568 6.45139 50.5482 7.09042 49.5589 7.75988C48.1585 8.7032 41.2026 14.3175 37.504 18.2429C37.3822 18.3647 36.606 19.1863 36.606 20.0383C36.606 20.7686 36.9408 21.2707 38.0063 22.001C41.6288 24.5571 47.504 29.2433 50.7917 32.6058C51.5984 33.4579 52.6639 34.9946 52.6639 36.8204C52.6639 38.6461 51.6441 40.0155 50.2286 40.0155L50.2438 40.0003Z" fill="#231815"/>
<path d="M71.7203 28.2375C71.5529 28.8309 71.4615 29.1809 71.4615 29.4243C71.4615 29.896 72.0552 31.8891 72.0552 32.2847C72.0552 33.4715 71.2028 34.2474 70.0156 34.2474C67.9303 34.2474 61.9181 31.3566 61.4463 19.3825C61.4006 18.4087 61.3245 14.1029 61.2332 13.2052C60.9288 10.2231 60.4721 9.37104 59.3154 7.19531C62.3443 7.45397 66.2256 9.27975 66.2256 12.7335C66.2256 13.2052 66.1038 13.5856 66.0125 14.0572C65.4189 16.659 64.947 18.9108 64.947 21.1322C64.947 25.1337 66.8649 27.8572 67.6716 27.8572C68.2195 27.8572 69.285 26.4878 69.8938 25.6814C71.3398 23.7643 74.5361 19.1999 75.3428 17.9218L75.6473 18.0435C75.3124 18.8499 71.766 28.055 71.7203 28.2223V28.2375ZM91.5377 27.3551C90.8071 27.3551 90.5941 27.1421 88.8589 25.225C87.7478 23.9926 84.2927 23.3992 83.3642 23.2166V22.9123C83.699 22.8667 87.6717 22.4407 88.1435 22.2733C88.4023 22.182 88.8284 21.8929 88.8284 21.117C88.8284 20.3866 88.2348 17.7088 86.7889 15.2744C85.3429 12.8857 83.3794 11.1816 82.1465 10.2079C87.7325 10.1166 94.0339 16.7655 94.0339 22.8971C94.0339 25.4076 92.7097 27.3246 91.5682 27.3246L91.5377 27.3551Z" fill="#231815"/>
<path d="M119.118 11.8375C116.089 13.1155 114.171 13.7089 112.253 14.2262C109.224 23.1269 105.739 32.1646 104.704 34.2947C103.379 37.1551 102.786 37.1855 102.055 37.1855C101.035 37.1855 99.7569 36.1661 99.7569 34.3707C99.7569 33.397 99.8787 33.1383 101.249 30.917C104.323 25.9721 106.576 21.2403 108.752 14.987C107.093 15.2456 105.86 15.4586 104.582 15.4586C100.838 15.4586 99.346 12.9938 99.0872 11.1984C101.051 12.1722 102.405 12.3548 103.988 12.3548C105.906 12.3548 107.946 12.02 109.833 11.5027C110.564 9.06835 110.899 7.02955 110.899 6.13187C110.899 4.30608 109.072 3.48448 107.611 3.10411C108.25 2.55637 108.889 2.03906 110.29 2.03906C112.253 2.03906 115.876 3.57577 115.876 5.56892C115.876 6.1623 115.754 6.37531 115.115 7.486C114.384 8.67276 114.141 9.28136 113.745 10.1638C113.912 10.1182 115.191 9.61609 116.089 9.00749C117.839 7.8968 118.052 7.77508 118.768 7.77508C120.168 7.77508 121.112 9.05314 121.112 9.90517C121.112 10.9246 119.879 11.4875 119.103 11.8222L119.118 11.8375ZM132.71 36.3335C131.766 36.8051 129.681 37.2768 126.743 37.2768C116.302 37.2768 114.597 32.6362 114.597 30.7648C114.597 29.6541 115.069 27.6153 116.561 26.4133C116.469 26.8394 116.348 27.3567 116.348 28.1631C116.348 32.8036 121.797 32.8036 123.897 32.8036C125.998 32.8036 126.88 32.6362 128.707 32.2863C129.468 32.1189 129.864 32.0733 130.29 32.0733C132.116 32.0733 133.577 34.0817 133.577 35.0554C133.577 35.1771 133.577 35.9531 132.725 36.3335H132.71ZM132.329 18.958C131.858 18.958 129.651 18.745 129.224 18.745C127.139 18.745 123.09 20.5404 122.451 20.8295L122.329 20.5708C123.486 19.7188 126.332 17.68 126.332 16.9953C126.332 15.8846 122.451 15.8846 122.071 15.8846C120.579 15.8846 119.894 15.9759 119.087 16.1433C121.431 13.7545 125.358 13.3742 127.139 13.3742C132.512 13.3742 134.125 16.1433 134.125 17.33C134.125 18.5168 133.395 18.9428 132.329 18.9428V18.958Z" fill="#231815"/>
<path d="M159.483 11.4562C156.241 13.1146 153.471 13.7993 151.979 14.134C148.57 23.6737 146.987 28.1013 144.399 34.2785C143.76 35.724 143.121 37.1389 141.797 37.1389C140.777 37.1389 139.331 36.1652 139.331 34.4611C139.331 33.5634 139.544 33.1831 141.553 29.8662C143.212 27.1427 145.648 23.0499 148.372 14.91C146.972 15.1686 145.724 15.4273 144.156 15.4273C140.533 15.4273 138.996 12.8712 138.707 11.1214C140.457 11.9278 141.812 12.3082 143.699 12.3082C145.237 12.3082 146.591 12.0952 149.498 11.3649C150.473 7.74373 150.564 7.01342 150.564 6.13095C150.564 4.33559 149.59 3.78785 147.322 2.98146C147.915 2.55545 148.768 2.00771 150.305 2.00771C152.436 2.00771 155.541 3.71178 155.541 5.41585C155.541 5.96359 155.206 6.6939 154.947 7.21121C154.643 7.80459 153.715 9.72167 153.547 10.102C154.78 9.63038 155.252 9.3413 156.317 8.61098C157.002 8.13932 157.687 7.75895 158.448 7.75895C159.605 7.75895 160.884 8.86963 160.884 9.79774C160.884 10.7259 160.031 11.1975 159.514 11.4562H159.483ZM172.177 36.4695C170.686 36.9868 166.546 37.1542 165.48 37.1542C160.579 37.1542 154.186 35.8761 154.186 30.9313C154.186 29.6076 154.613 27.9491 156.272 26.2451C156.15 26.9754 156.013 27.8274 156.013 28.2078C156.013 32.7266 161.432 32.7266 163.562 32.7266C165.1 32.7266 166.759 32.6353 167.87 32.4223C169.453 32.0876 169.62 32.0876 170.001 32.0876C171.584 32.0876 173.365 33.6243 173.365 34.9023C173.365 35.8761 172.512 36.3478 172.177 36.4847V36.4695ZM172.177 18.9115C171.66 18.9115 169.453 18.6985 168.981 18.6985C167.185 18.6985 163.989 19.9765 162.253 20.7373L162.132 20.4786C163.106 19.7939 166.089 17.6182 166.089 16.9488C166.089 15.9294 162.68 15.8837 162.132 15.8837C160.594 15.8837 159.575 15.975 158.814 16.0967C160.518 14.3014 164.613 13.2363 167.002 13.2363C170.579 13.2363 173.913 15.199 173.913 17.2378C173.913 18.5159 173.06 18.8963 172.208 18.8963L172.177 18.9115ZM169.575 10.4368C168.844 10.4368 168.768 10.2694 167.276 8.51969C166.12 7.11992 164.415 5.96359 163.014 5.06591C166.85 5.06591 171.158 6.34396 171.158 8.77834C171.158 9.67602 170.518 10.4368 169.575 10.4368ZM173.41 7.11992C172.649 7.11992 172.223 6.57218 171.751 5.93316C171.203 5.20284 169.285 3.20969 166.424 1.88599C168.433 1.76427 174.902 1.84035 174.902 5.38542C174.902 6.35917 174.263 7.13513 173.41 7.13513V7.11992Z" fill="#231815"/>
<path d="M196.257 40.0003C195.145 40.0003 195.069 39.8786 192.117 35.1467C189.986 31.7386 188.372 30.1562 181.158 23.1726C179.712 21.7728 179.499 20.9208 179.499 20.2361C179.499 19.5514 179.59 18.6233 181.416 16.6606C188.281 9.4183 191.903 5.58414 191.903 3.71271C191.903 2.176 190.031 1.11096 189.346 0.776232C189.818 0.608868 190.107 0.517578 191.097 0.517578C194.384 0.517578 197.581 3.71271 197.581 5.29506C197.581 6.45139 196.561 7.09042 195.572 7.75988C194.171 8.7032 187.215 14.3175 183.517 18.2429C183.395 18.3647 182.619 19.1863 182.619 20.0383C182.619 20.7686 182.954 21.2707 184.019 22.001C187.642 24.5571 193.517 29.2433 196.805 32.6058C197.611 33.4579 198.677 34.9946 198.677 36.8204C198.677 38.6461 197.657 40.0155 196.241 40.0155L196.257 40.0003Z" fill="#231815"/>
<path d="M233 34.0357C230.534 35.1464 224.095 35.405 221.325 35.405C210.412 35.405 205.77 31.2361 205.77 26.8847C205.77 24.7089 206.881 21.7725 209.088 20.4944C208.783 21.3465 208.235 22.7919 208.235 24.3742C208.235 26.2 209.179 27.6606 210.366 28.7257C212.665 30.7645 217.49 30.8101 218.296 30.8101C222.223 30.8101 225.161 30.3385 228.479 29.6994C229.377 29.5321 229.666 29.4864 230.016 29.4864C231.767 29.4864 234.187 30.5971 234.187 32.2555C234.187 33.4119 233.289 33.914 233 34.0509V34.0357ZM227.155 11.6241C223.487 11.6698 222.512 11.6698 218.677 12.9935C216.12 13.8911 215.1 14.3932 214.415 14.7432L214.248 14.4389C214.795 13.9672 215.359 13.4195 217.49 11.7915C218.129 11.3198 219.149 10.5591 219.149 10.4221C219.149 10.1178 218.555 10.0418 218.342 10.0418C216.546 9.92005 209.605 8.38335 209.651 3.60586C212.939 6.42062 216.592 6.46627 219.544 6.46627C220.305 6.46627 223.547 6.34455 224.232 6.34455C228.403 6.34455 230.29 8.47464 230.29 9.84398C230.29 11.335 228.753 11.6393 227.185 11.6393L227.155 11.6241ZM234.78 9.84398C234.05 9.84398 233.882 9.63097 232.528 7.75953C230.945 5.67509 230.488 5.20343 228.57 4.09274C233.684 4.26011 236.287 6.13154 236.287 8.18555C236.287 9.12888 235.557 9.84398 234.796 9.84398H234.78ZM239.255 7.71389C238.616 7.71389 238.449 7.54653 237.079 5.75117C235.161 3.31678 233.669 2.7234 232.939 2.43432C233.456 2.38867 233.745 2.38867 234.217 2.38867C236.653 2.38867 240.732 3.40807 240.732 6.13154C240.732 7.02922 240.138 7.71389 239.24 7.71389H239.255Z" fill="#231815"/>
<path d="M261.721 9.3732H257.672C257.672 10.2709 257.764 14.1507 257.764 14.9114C257.764 15.5048 257.764 17.0415 255.298 17.0415C254.141 17.0415 253.639 16.6155 253.639 15.5961C253.639 14.5767 253.73 10.2709 253.73 9.3732H251.051C250.366 13.466 248.449 17.4219 243 19.5976L242.832 19.4303C245.344 16.8742 246.927 14.0138 246.927 7.62349C246.927 6.98446 246.927 4.85438 246.5 2.60257L251.097 4.18492C254.72 2.95251 256.166 1.37016 257.064 0.396408L261.204 3.0438C261.417 3.16552 261.675 3.46982 261.675 3.68283C261.675 3.85019 261.584 4.23057 260.777 4.23057C260.564 4.23057 260.351 4.23057 259.879 4.13928C257.109 4.73266 254.172 4.86959 251.264 4.99131C251.31 6.22372 251.356 6.90839 251.173 8.35381H256.379L257.992 6.34544C258.251 6.04114 258.464 5.7977 258.677 5.7977C258.936 5.7977 259.316 6.102 259.484 6.22372L261.949 8.30816C262.071 8.42988 262.376 8.61246 262.376 8.94719C262.376 9.32756 262.041 9.3732 261.736 9.3732H261.721ZM280.991 9.3732H274.978C275.024 11.975 275.024 14.5311 275.024 14.8201C275.024 15.4135 275.024 17.1632 272.345 16.9959L275.329 18.8673C275.542 18.989 275.876 19.2477 275.876 19.5976C275.876 20.0236 275.709 20.1149 274.126 20.9974C274.004 22.6102 274.248 29.8525 274.248 31.3435C274.248 32.4999 274.248 33.641 271.478 33.641C271.051 33.641 269.682 33.641 269.895 32.3173H256.47L259.925 34.4474C260.26 34.6604 260.351 34.8734 260.351 35.0864C260.351 35.4668 260.184 35.7254 258.647 35.6798C254.765 37.7186 247.733 39.5596 243.304 39.5596V39.2553C247.733 38.1446 253.274 34.1887 255.024 32.3173H253.959C253.913 33.5953 251.828 33.8996 250.717 33.8996C249.986 33.8996 249.438 33.7779 249.438 32.789C249.438 32.4086 249.605 30.8719 249.605 30.5371C249.697 27.8897 249.697 25.8053 249.697 23.9339C249.697 18.6543 249.605 17.6653 249.529 16.5242L254.339 18.4413H269.773L270.717 17.2545C271.051 16.8285 271.188 16.7372 271.447 16.7068C271.067 16.3721 270.93 16.1591 270.93 15.4744C270.93 14.5311 271.021 10.2709 271.021 9.38842H267.185C266.805 11.2599 265.694 16.0373 259.088 18.0001L258.997 17.787C260.321 16.6307 263.563 13.7855 263.563 6.11721C263.563 3.81976 263.35 3.13509 263.091 2.16134L267.444 3.6524C270.001 2.96773 272.391 1.78096 274.385 0.03125L278.266 2.75472C278.647 3.01337 278.738 3.13509 278.738 3.30246C278.738 3.85019 278.053 3.85019 277.84 3.85019C277.749 3.85019 277.414 3.7589 277.155 3.72847C273.791 4.3675 269.225 4.58051 267.688 4.58051C267.642 6.16286 267.52 7.30398 267.353 8.36902H275.283L276.988 5.90421C277.079 5.78249 277.368 5.35647 277.627 5.35647C277.931 5.35647 278.357 5.73684 278.434 5.82813L281.204 8.29295C281.462 8.50595 281.63 8.67332 281.63 8.97762C281.63 9.35799 281.295 9.40363 280.991 9.40363V9.3732ZM269.94 19.4759H253.913V22.7167H269.94V19.4759ZM269.94 23.7361H253.913V27.0225H269.94V23.7361ZM269.94 28.0267H253.913V31.3131H269.94V28.0267ZM276.637 39.9552C275.831 39.9552 275.237 39.7422 273.319 38.4185C268.799 35.3907 267.52 34.5387 264.537 33.428L264.628 33.1237C268.342 33.3367 278.86 34.1431 278.86 37.7642C278.86 38.3576 278.342 39.94 276.637 39.94V39.9552Z" fill="#231815"/>
<path d="M298.205 3.19589L299.316 1.58311C299.53 1.27881 299.697 1.03537 300.077 1.03537C300.291 1.03537 300.549 1.15709 300.717 1.33967L303.441 3.77406C303.654 3.98706 303.867 4.20007 303.867 4.41308C303.867 4.8391 303.7 4.96082 302.498 5.8585C302.498 7.47128 302.619 14.5462 302.619 15.9916C302.619 17.6501 300.915 18.2891 299.804 18.2891C298.479 18.2891 298.479 17.2697 298.434 16.372H292.208V22.1689C292.208 24.5576 292.3 35.0711 292.3 37.2012C292.3 38.1445 292.254 38.4793 291.995 38.7836C291.615 39.3009 290.671 39.8943 289.56 39.8943C289.042 39.8943 287.81 39.7725 287.81 38.3575C287.81 37.7642 287.931 35.1168 287.931 34.6147C288.023 32.1499 288.053 28.3157 288.053 20.8604C288.053 5.52377 288.053 3.8197 287.505 1.17231L292.787 3.2111H298.16L298.205 3.19589ZM292.239 4.21529V9.0232H298.464V4.21529H292.239ZM292.239 10.0578V15.3374H298.464V10.0578H292.239ZM307.323 21.6364L308.342 20.2366C308.555 19.9323 308.814 19.5519 309.103 19.5519C309.393 19.5519 309.575 19.7193 309.788 19.8866L312.513 21.895C312.772 22.0624 313.03 22.2754 313.03 22.534C313.03 23.0057 312.087 23.6904 311.66 23.8121C311.66 25.0445 311.752 30.3241 311.706 31.3891C311.66 33.5648 309.53 33.5648 309.149 33.5648C307.566 33.5648 307.612 32.8041 307.657 31.3435H300.93C300.93 31.5108 300.93 33.1693 300.839 33.4279C300.58 34.1126 299.225 34.6603 298.281 34.6603C296.881 34.6603 296.881 33.6409 296.881 33.1236C296.881 32.1042 297.003 27.5397 297.003 26.6421C297.003 22.7623 296.912 21.6516 296.698 19.7801L301.645 21.6059H307.307L307.323 21.6364ZM300.93 22.671V30.3393H307.657V22.671H300.93ZM316.82 3.19589L318.221 1.44617C318.434 1.18752 318.647 0.898438 318.982 0.898438C319.195 0.898438 319.408 1.02016 319.621 1.20274L322.604 3.66755C322.817 3.83492 322.985 4.13921 322.985 4.30658C322.985 4.82388 322.817 4.99125 321.447 6.13237C321.447 12.6443 321.447 16.8284 321.493 20.1909C321.493 22.3667 321.661 33.7779 321.661 33.8235C321.661 36.2883 321.661 38.6771 315.816 39.7421C315.511 37.8707 315.268 36.4557 311.889 34.3712L311.98 34.0365C313.137 34.1278 314.705 34.2039 315.907 34.2039C317.11 34.2039 317.353 33.8691 317.353 33.0171V16.3568H310.534C310.625 17.8022 309.088 18.2739 307.855 18.2739C306.455 18.2739 306.455 17.1632 306.455 16.6154C306.455 15.383 306.577 9.96652 306.577 8.85584C306.577 3.65234 306.531 3.15024 306.105 1.27881L311.052 3.19589H316.805H316.82ZM310.565 4.21529V9.0232H317.384V4.21529H310.565ZM310.565 10.0578V15.3374H317.384V10.0578H310.565Z" fill="#231815"/>
</g>
<defs>
<clipPath id="clip0_461_200">
<rect width="323" height="40" fill="white"/>
</clipPath>
</defs>
</svg>
